<svg width="50" height="44" fill="none" xmlns="http://www.w3.org/2000/svg"><path d="M48.028 20.02h-6.453l2.198-3.822a1.984 1.984 0 00-.722-2.705 1.968 1.968 0 00-2.694.725l-2.198 3.822-3.163-5.5h4.397c1.09 0 1.972-.886 1.972-1.98 0-1.093-.883-1.98-1.972-1.98h-4.397l3.226-5.61a1.984 1.984 0 00-.721-2.704 1.968 1.968 0 00-2.695.724L31.58 6.6l-2.2-3.821a1.968 1.968 0 00-2.694-.725 1.984 1.984 0 00-.722 2.705l2.198 3.822h-6.326l2.198-3.822a1.984 1.984 0 00-.721-2.705 1.968 1.968 0 00-2.695.725L18.421 6.6 15.194.99A1.968 1.968 0 0012.5.266a1.984 1.984 0 00-.722 2.704l3.226 5.61h-4.396c-1.09 0-1.973.887-1.973 1.98 0 1.094.884 1.98 1.973 1.98h4.396l-3.163 5.5-2.198-3.822a1.968 1.968 0 00-2.694-.725 1.984 1.984 0 00-.722 2.705l2.198 3.822H1.972A1.976 1.976 0 000 22c0 1.094.883 1.98 1.972 1.98h6.453l-2.198 3.823a1.984 1.984 0 00.722 2.704 1.97 1.97 0 002.694-.725l2.198-3.822 3.163 5.5h-4.396c-1.09 0-1.973.886-1.973 1.98 0 1.093.884 1.98 1.973 1.98h4.396l-3.226 5.61a1.984 1.984 0 00.722 2.704 1.97 1.97 0 002.694-.725l3.227-5.61 2.198 3.823a1.97 1.97 0 002.694.725 1.984 1.984 0 00.722-2.705l-2.198-3.822h6.326l-2.198 3.822a1.984 1.984 0 00.721 2.705 1.97 1.97 0 002.694-.725l2.2-3.823 3.226 5.61a1.97 1.97 0 002.694.725 1.984 1.984 0 00.722-2.704l-3.226-5.61h4.396c1.09 0 1.973-.887 1.973-1.98 0-1.094-.883-1.98-1.973-1.98h-4.397l3.163-5.5 2.198 3.823a1.97 1.97 0 002.695.724 1.984 1.984 0 00.722-2.704l-2.199-3.823h6.454c1.09 0 1.972-.886 1.972-1.98 0-1.093-.882-1.98-1.972-1.98zM30.441 31.46H19.56L14.119 22l5.44-9.46h10.882L35.88 22l-5.44 9.46z" fill="#FC0012"/></svg>