<svg width="49" height="49" fill="none" xmlns="http://www.w3.org/2000/svg"><path d="M30.719 12.718a1.406 1.406 0 100-2.813 1.406 1.406 0 000 2.813zm7.969 7.968a1.406 1.406 0 100-2.813 1.406 1.406 0 000 2.813z" fill="#FC0012"/><path d="M26.004 14.117c-.067.657.359 1.236.995 1.465l.102-.282-.102.282a12.334 12.334 0 017.414 7.414c.23.637.808 1.063 1.466.996.037-.004.074-.006.112-.006h8.765c.025 0 .05.001.074.003h0c1.049.07 1.833-.897 1.619-1.898A24.155 24.155 0 0027.904 3.547h0c-.996-.214-1.968.566-1.897 1.618h0c.002.025.002.05.002.075v8.765c0 .037-.002.074-.005.112zm0 0l.298.03-.298-.03s0 0 0 0zm-2.198-8.84v-.02c-.134-2.423 2.116-4.398 4.562-3.874a26.367 26.367 0 0120.244 20.245c.524 2.443-1.41 4.707-3.882 4.571h0-.013l-.796-.01-.314-.003.01.313c.39 11.994-8.46 22.2-21.174 22.2-12.02 0-21.147-9.285-21.147-21.146 0-12.734 10.212-21.564 22.191-21.175l.306.01.004-.306.01-.806zm.509 10.826l-.556-.902v5.374l.243.048a7.266 7.266 0 012.497.977l.203.129.17-.17 2.03-2.03.245-.245-.277-.208a10.002 10.002 0 00-2.62-1.412 3.76 3.76 0 01-1.935-1.56zm4.08 15.506l-.128.203.17.17 4.02 4.021.243.243.208-.273c1.536-2.018 2.51-4.687 2.747-7.395l.029-.326h-6.188l-.032.264c-.135 1.136-.504 2.205-1.069 3.094zm2.482 6.416l.265-.209-.239-.238-4.031-4.031-.17-.17-.203.129c-.71.45-1.528.776-2.407.958l-.239.05v6.291l.336-.041c2.412-.296 4.75-1.207 6.688-2.739zm-1.542-12.212l.052.236h4.981l-.732-.542a3.772 3.772 0 01-1.304-1.76h0a10.006 10.006 0 00-1.413-2.622l-.207-.277-.245.245-2.03 2.03-.17.17.128.203c.436.686.754 1.472.94 2.317zm-7.788-5.556v-.346h0V14.24l-.333.037c-2.625.285-5.208 1.277-7.196 2.808l-.27.209.241.241 4.024 4.024.17.17.203-.13a7.354 7.354 0 012.881-1.042h.28v-.3 0zm-5.057 3.24l.128-.204-.17-.17-4.029-4.029-.239-.239-.209.266c-1.473 1.877-2.419 4.206-2.723 6.685l-.041.336h6.275l.05-.238c.182-.88.507-1.698.958-2.408zm-.041 8.485l.17-.17-.13-.203a7.374 7.374 0 01-1.055-2.974v-.28H9.16l.026.323c.213 2.71 1.19 5.273 2.785 7.306l.21.267.239-.24 4.028-4.029zm1.937 1.524l-.203-.129-.17.17-4.03 4.031-.24.238.265.21c2.105 1.662 4.68 2.593 7.309 2.8l.323.025V34.6l-.26-.035a7.38 7.38 0 01-2.994-1.058zm5.41-24.633v-.29l-.288-.01c-5.353-.2-10.956 1.888-14.557 5.489-3.462 3.461-5.442 8.38-5.442 13.49 0 10.744 8.267 18.935 18.933 18.935 5.112 0 10.03-1.98 13.492-5.443 3.6-3.6 5.688-9.203 5.489-14.556l-.011-.287-.287-.002-2.936-.019-.317-.002.016.317c.224 4.532-1.412 9.182-4.367 12.136-2.857 2.857-6.916 4.436-11.078 4.436-8.9 0-15.515-6.755-15.515-15.514 0-9.577 7.654-15.94 16.556-15.548l.313.014V8.873zm-1.353 23.549c1.486 0 2.71-.482 3.563-1.35.852-.866 1.305-2.088 1.305-3.52 0-1.486-.481-2.71-1.349-3.563-.866-.852-2.089-1.305-3.52-1.305-1.486 0-2.71.482-3.563 1.348-.852.867-1.305 2.09-1.305 3.52 0 1.465.464 2.689 1.323 3.547.859.859 2.083 1.323 3.546 1.323z" fill="#FC0012" stroke="#fff" stroke-width=".6"/></svg>