<svg width="40" height="40" fill="none" xmlns="http://www.w3.org/2000/svg"><path d="M34.142 5.898C30.365 2.095 25.342 0 20 0 14.658 0 9.635 2.095 5.858 5.898 2.088 9.694.008 14.848 0 20.215a20.17 20.17 0 004.55 12.758c2.893 3.54 6.93 6 11.365 6.927a4.655 4.655 0 003.918-.961 4.711 4.711 0 001.729-3.658v-6.804c3.473-.712 6.094-3.811 6.094-7.515v-4.05c0-.87-.7-1.574-1.562-1.574h-1.328v-4.011c0-.87-.7-1.573-1.563-1.573s-1.562.704-1.562 1.573v4.011h-3.125v-4.011c0-.87-.7-1.573-1.563-1.573s-1.562.704-1.562 1.573v4.011h-1.406c-.863 0-1.563.705-1.563 1.573v4.051c0 3.676 2.582 6.755 6.015 7.498v6.82a1.55 1.55 0 01-.576 1.218 1.557 1.557 0 01-1.31.322C8.78 35.196 3.136 28.216 3.122 20.215c0 0 .002.02.002 0 0-9.368 7.57-17.069 16.875-17.069s16.875 7.622 16.875 16.99c0 6.868-4.042 13.03-10.297 15.7a1.577 1.577 0 00-.83 2.061 1.558 1.558 0 002.05.835 19.997 19.997 0 008.79-7.32A20.234 20.234 0 0040 20.136c0-5.378-2.08-10.435-5.858-14.238zM15.547 20.962v-2.477h8.984v2.477c0 2.494-2.015 4.523-4.492 4.523s-4.492-2.029-4.492-4.523z" fill="#FC0012"/></svg>