<svg width="100" height="100" fill="none" xmlns="http://www.w3.org/2000/svg"><path d="M67.97 16.499h-9.808c.347-4.312-1.12-8.743-4.412-12.034-5.953-5.953-15.64-5.953-21.595 0L29.111 7.51l-3.043-3.044c-5.954-5.954-15.642-5.953-21.595 0A15.17 15.17 0 000 15.264a15.17 15.17 0 004.473 10.798l7.38 7.38a31.833 31.833 0 00-3.724 14.964c0 17.593 14.313 31.906 31.906 31.906h4.768l20.794 19.352V80.31h2.373c17.593 0 31.906-14.313 31.906-31.906 0-17.593-14.313-31.906-31.906-31.906zM8.614 8.607a9.383 9.383 0 016.656-2.753c2.41 0 4.821.918 6.656 2.753l7.185 7.185 7.186-7.185c3.67-3.67 9.641-3.67 13.312 0a9.351 9.351 0 012.757 6.656 9.351 9.351 0 01-2.757 6.656L29.11 42.416 8.614 21.92c-3.67-3.67-3.67-9.642 0-13.312zM67.97 74.454h-8.23V86.21L47.106 74.454h-7.072c-14.364 0-26.05-11.686-26.05-26.05 0-3.674.77-7.274 2.245-10.587L29.112 50.7 53.75 26.06a15.217 15.217 0 002.726-3.704H67.97c14.364 0 26.05 11.685 26.05 26.049 0 14.363-11.687 26.049-26.05 26.049z" fill="#0084FE" fill-opacity=".04"/><path d="M38.029 46.739h6.19v5.857h-6.19v-5.857zm13.667 0h6.19v5.857h-6.19v-5.857zm13.668 0h6.19v5.857h-6.19v-5.857z" fill="#0084FE" fill-opacity=".04"/></svg>