<svg width="34" height="34" fill="none" xmlns="http://www.w3.org/2000/svg"><path d="M23.193 5.763h-3.322a5.161 5.161 0 00-1.494-4.075 5.178 5.178 0 00-7.315 0l-1.03 1.03L9 1.688a5.178 5.178 0 00-7.315 0A5.138 5.138 0 00.171 5.345c0 1.381.538 2.68 1.515 3.657l2.5 2.5a10.782 10.782 0 00-1.262 5.068c0 5.96 4.848 10.807 10.807 10.807h1.615l7.043 6.555v-6.555h.804C29.153 27.377 34 22.529 34 16.57c0-5.959-4.848-10.807-10.807-10.807zM3.09 3.09a3.178 3.178 0 012.254-.932c.817 0 1.633.31 2.255.932l2.433 2.434 2.434-2.434a3.192 3.192 0 014.509 0 3.17 3.17 0 01.934 2.255c0 .851-.332 1.652-.934 2.254l-6.943 6.943L3.09 7.599a3.192 3.192 0 010-4.509zm20.104 22.303h-2.788v3.982l-4.278-3.982H13.73c-4.865 0-8.823-3.958-8.823-8.823 0-1.245.261-2.464.76-3.586l4.363 4.363 8.346-8.345c.38-.38.687-.803.924-1.255h3.892c4.865 0 8.823 3.958 8.823 8.823s-3.958 8.823-8.823 8.823z" fill="#fff"/><path d="M13.052 16.006h2.096v1.984h-2.096v-1.984zm4.629 0h2.097v1.984H17.68v-1.984zm4.629 0h2.097v1.984H22.31v-1.984z" fill="#fff"/></svg>