<svg width="82" height="48" fill="none" xmlns="http://www.w3.org/2000/svg"><path d="M80.522 33.597L78.92 24.15c-.32-1.602-1.6-3.043-3.202-3.363l-12.97-2.882c-.641-.16-1.281-.48-1.762-.961L50.258 5.414c-2.562-2.721-6.085-4.323-9.928-4.323H20.634c-7.686 0-14.252 5.445-15.693 13.13L1.1 35.198c-.32 1.441.16 2.883 1.12 4.004a5.115 5.115 0 003.843 1.761h.96c1.603 4.004 5.445 6.885 10.09 6.885 4.483 0 8.486-2.882 10.087-6.885h26.9c1.602 4.004 5.444 6.885 10.088 6.885 4.483 0 8.486-2.882 10.088-6.885h1.44c1.442 0 2.723-.48 3.684-1.601.96-.962 1.6-2.242 1.6-3.683l-.48-2.082h0zm-74.46 6.245c-1.12 0-2.08-.48-2.882-1.28-.64-.801-.96-1.922-.8-3.043l.16-.96h4.003c-.16.8-.32 1.76-.32 2.561 0 .96.16 1.762.32 2.723h-.48 0zm20.017 0c0 .16-.16.48-.16.641 0 .161-.16.48-.32.641-1.44 3.363-4.803 5.604-8.647 5.604-3.843 0-7.206-2.241-8.647-5.604-.16-.16-.16-.48-.32-.64 0-.16-.16-.48-.16-.642-.32-.8-.48-1.761-.48-2.722a6.637 6.637 0 01.48-2.562c0-.16.16-.48.16-.64 0-.161.16-.48.16-.641 1.441-3.363 4.804-5.765 8.647-5.765s7.206 2.402 8.647 5.765c.16.16.16.48.16.64 0 .16.16.48.16.641.16.801.48 1.762.48 2.562.16.96 0 1.762-.16 2.723h0zm1.28 0c.16-.8.32-1.761.32-2.722 0-.96-.16-1.762-.32-2.562h26.102c-.16.801-.32 1.762-.32 2.562 0 .96.16 1.762.32 2.723H27.36zm45.636 0c0 .16-.16.48-.16.641 0 .161-.16.48-.32.641-1.44 3.363-4.803 5.604-8.647 5.604-3.843 0-7.205-2.241-8.646-5.604-.16-.16-.16-.48-.32-.64 0-.16-.16-.48-.16-.642-.32-.8-.48-1.761-.48-2.722a6.637 6.637 0 01.48-2.562c0-.16.16-.48.16-.64 0-.161.16-.48.16-.641 1.44-3.363 4.803-5.765 8.647-5.765 3.843 0 7.205 2.402 8.646 5.765.16.16.16.48.16.64 0 .16.16.48.16.641.16.801.481 1.762.481 2.562.32.96.16 1.762-.16 2.723zm-9.127-13.45c-4.643 0-8.486 2.882-10.088 6.885H26.879c-1.602-4.004-5.444-6.886-10.088-6.886-4.645 0-8.487 2.883-10.088 6.886H2.54l1.44-8.167h3.523c.32 0 .64-.32.64-.641 0-.32-.32-.64-.64-.64H4.3l.32-1.922h3.203c.32 0 .64-.32.64-.64s-.32-.641-.64-.641H4.78l1.121-6.405C7.182 7.175 13.267 2.21 20.313 2.21h19.695c3.363 0 6.725 1.441 8.967 3.844l10.728 11.529c.641.64 1.441 1.12 2.402 1.28l12.971 2.883c1.12.16 1.92.961 2.081 2.082h-4.803c-.32 0-.641.32-.641.64 0 .322.32.642.64.642h4.965l1.44 8.006h-5.284c-1.12-3.844-4.964-6.725-9.607-6.725h.002zm15.372 9.447c0 1.121-.48 2.082-1.12 2.883-.8.8-1.761 1.12-2.882 1.12h-.961c.16-.8.32-1.761.32-2.722 0-.96-.16-1.762-.32-2.562h4.963v1.281z" fill="#111010" stroke="#111010" stroke-width=".3"/><path d="M27.841 20.789H24.64c-.32 0-.641.32-.641.64 0 .322.32.642.64.642h3.203c.32 0 .641-.32.641-.641s-.32-.641-.64-.641zM69.15 33.917c-.16-.16-.32-.48-.48-.64-1.12-1.441-2.882-2.402-4.804-2.402-1.922 0-3.682.96-4.803 2.401-.16.16-.321.481-.481.641-.16.16-.16.48-.32.641-.32.801-.64 1.602-.64 2.562 0 .96.32 1.922.64 2.722.16.16.16.48.32.641.16.161.32.48.48.641 1.122 1.44 2.883 2.242 4.804 2.242 1.922 0 3.683-.961 4.804-2.242.16-.16.32-.32.48-.64.16-.16.16-.48.321-.642.32-.8.64-1.761.64-2.722 0-.961-.16-1.762-.64-2.562 0-.32-.16-.48-.32-.64zm-1.12 5.925c-.16.16-.32.48-.48.641l-.641.641c-.801.64-1.922.96-3.043.96-1.12 0-2.081-.32-3.042-.96a1.25 1.25 0 01-.64-.64c-.16-.16-.321-.32-.481-.642-.48-.8-.8-1.761-.8-2.722 0-.961.32-1.762.8-2.562.16-.16.32-.48.48-.64l.64-.642c.801-.64 1.922-1.12 3.043-1.12 1.121 0 2.242.48 3.043 1.12.16.16.48.32.64.641.16.16.32.32.48.641.481.801.801 1.602.801 2.562 0 .96-.32 1.922-.8 2.722zm-45.794-5.925c-.16-.16-.32-.48-.48-.64-1.121-1.441-2.883-2.402-4.805-2.402-1.921 0-3.682.96-4.803 2.401-.16.16-.32.481-.48.641-.16.16-.16.48-.32.641-.32.801-.641 1.602-.641 2.562 0 .96.32 1.922.64 2.722.16.16.16.48.32.641.16.161.32.48.48.641 1.122 1.44 2.883 2.242 4.804 2.242 1.921 0 3.684-.961 4.805-2.242.16-.16.32-.32.48-.64.16-.16.16-.48.32-.642.32-.8.641-1.761.641-2.722 0-.961-.16-1.762-.64-2.562-.16-.32-.32-.48-.32-.64zm-1.12 5.925c-.16.16-.32.48-.48.641l-.641.641c-.801.64-1.922.96-3.043.96-1.12 0-2.082-.32-3.042-.96a1.25 1.25 0 01-.641-.64c-.16-.16-.32-.32-.48-.642-.481-.8-.801-1.761-.801-2.722 0-.961.32-1.762.8-2.562.16-.16.32-.48.48-.64l.642-.642c.8-.64 1.921-1.12 3.042-1.12 1.12 0 2.242.48 3.043 1.12.16.16.48.32.64.641.16.16.32.32.48.641.481.801.801 1.602.801 2.562 0 .96-.32 1.922-.8 2.722zm35.225-22.737l-8.166-9.447c-2.082-2.402-5.124-3.844-8.327-3.844H22.394c-3.843 0-7.366 2.242-8.967 5.925l-1.601 3.683c-.481.96-.32 2.242.16 3.203.64.96 1.6 1.601 2.722 1.601l40.512 1.281c.48 0 .961-.32 1.281-.8.16-.48.16-1.122-.16-1.602zm-41.633-.16c-.8 0-1.44-.32-1.762-.961-.32-.641-.48-1.441-.16-2.082l1.602-3.682c.96-2.242 2.883-4.004 5.124-4.644l1.762 11.69-6.565-.32v-.001zm40.512 1.28l-32.666-.96-1.762-12.01c.481-.16.961-.16 1.441-.16h17.454c2.882 0 5.604 1.281 7.526 3.363l8.166 9.447-.16.32h.001z" fill="#111010" stroke="#111010" stroke-width=".3"/></svg>