<svg width="134" height="48" fill="none" xmlns="http://www.w3.org/2000/svg"><path d="M132.254 22.28c-1.697-3.394-5.281-5.47-9.806-5.657l-27.91-2.64c-2.453 0-4.715-.756-6.79-2.264l-9.618-6.6c-.376-.19-.754-.566-1.32-.943C72.095.782 71.153.404 70.587.782c-.377.189-.565.566-.754 1.131l-.19.377c-.376.755-.376 1.697.378 2.452l9.618 7.92.189.377-.377.188-30.927-1.13-2.641-6.036c-.377-.942-1.32-1.51-2.263-1.51-.755 0-1.508.378-1.886.943a2.616 2.616 0 00-.377 2.075l1.132 4.338-26.59-.942h-6.79c-2.074 0-4.149.754-5.657 2.262C1.944 14.736 1 16.622 1 18.886v6.788c0 7.92 6.412 14.52 14.52 14.52h1.509c2.074 4.338 6.412 7.544 11.504 7.544s9.618-3.018 11.504-7.543h55.066c2.074 4.337 6.411 7.543 11.503 7.543 5.28 0 9.618-3.206 11.693-7.543 4.902-.566 9.24-2.829 12.069-6.601.565-.755.942-1.51 1.32-2.263h.188v-.189c1.509-3.394 1.698-6.411.378-8.863v.002zM42.866 6.25c.376-.566 1.32-.377 1.697.189l2.262 5.47-3.017-.19-1.131-4.714c0-.19 0-.377.188-.755v0zm-26.59 32.248h-.943c-5.092 0-9.618-3.018-11.692-7.356h12.823c-.377 1.132-.566 2.452-.566 3.772-.188 1.132.19 2.263.377 3.584zm22.817 0c-.188.565-.376.942-.565 1.508-1.886 3.583-5.657 6.035-9.806 6.035-4.338 0-8.109-2.452-9.806-6.035-.19-.377-.377-.943-.566-1.508-.377-1.132-.755-2.452-.755-3.773 0-1.32.19-2.64.755-3.772.189-.565.377-.942.566-1.508 1.886-3.583 5.657-6.035 9.806-6.035 4.338 0 7.92 2.452 9.806 6.035.189.377.377.943.566 1.508.376 1.132.754 2.452.754 3.772-.189 1.32-.377 2.452-.755 3.773zm55.444 0H40.603c.377-1.132.565-2.452.565-3.773 0-1.32-.188-2.64-.565-3.772h54.123c-.378 1.132-.566 2.452-.566 3.772 0 1.32.188 2.452.377 3.773zm22.818-.19c-.188.566-.376.943-.565 1.51a11.296 11.296 0 01-9.995 6.035c-4.337 0-8.11-2.452-9.806-6.035-.19-.377-.378-.943-.566-1.51-.378-1.13-.755-2.451-.755-3.77 0-1.32.19-2.641.755-3.772.188-.566.377-.943.566-1.51 1.886-3.583 5.657-6.035 9.806-6.035 4.149 0 7.921 2.452 9.806 6.035.189.377.378.943.566 1.51.377 1.13.754 2.451.754 3.772 0 1.508-.188 2.64-.566 3.77v0zm11.881-6.034c-2.451 3.205-6.035 5.28-10.371 5.846a11.01 11.01 0 00.565-3.584c0-1.32-.189-2.64-.565-3.772h11.314c-.377.566-.566 1.132-.943 1.509v0zm1.697-2.829h-12.634c-2.075-4.338-6.413-7.543-11.504-7.543-5.092 0-9.618 3.017-11.503 7.543H40.037c-2.075-4.338-6.412-7.543-11.504-7.543-5.093 0-9.618 3.017-11.503 7.543H3.075a10.99 10.99 0 01-.566-3.583h3.772a.815.815 0 00.755-.755.816.816 0 00-.755-.754H2.51v-4.715h3.772a.816.816 0 00.755-.755.815.815 0 00-.755-.754H2.698c.19-1.508.755-3.018 1.886-4.149 1.132-1.131 2.829-1.697 4.338-1.697h6.789l63.742 2.452c.754 0 1.51-.377 1.697-1.132a2.127 2.127 0 00-.566-2.074l-9.618-7.732a.578.578 0 010-.754l.19-.377.188-.377c.943.377 3.583 2.263 4.715 3.018.565.376.942.754 1.32.942l9.618 6.412c2.263 1.697 4.903 2.452 7.543 2.64l27.911 2.64c3.205.189 6.034 1.508 7.731 3.583h-7.165a.813.813 0 00-.755.755.813.813 0 00.755.754h8.108c.754 1.886.754 4.15-.189 6.412h-.003z" fill="#FC0012" stroke="#FC0012" stroke-width=".3"/><path d="M111.887 29.451c-1.32-1.32-3.017-2.075-5.091-2.075-1.886 0-3.772.755-5.092 2.075-.377.377-.754.943-1.132 1.508a6.807 6.807 0 00-1.131 3.772c0 1.32.377 2.641 1.131 3.773.378.565.755.942 1.132 1.508 1.32 1.32 3.206 2.075 5.092 2.075 2.074 0 3.771-.755 5.091-2.075.378-.377.755-.943 1.132-1.508.565-1.132 1.131-2.263 1.131-3.773 0-1.32-.377-2.64-1.131-3.772-.377-.565-.754-.942-1.132-1.508v0zm-.754 9.053c-.566.565-1.132 1.131-1.885 1.508-.754.377-1.697.754-2.641.754s-1.886-.188-2.64-.754c-.754-.377-1.32-.943-1.886-1.508a6.075 6.075 0 01-1.32-3.773c0-1.509.566-2.64 1.32-3.772.566-.565 1.132-1.131 1.886-1.508.755-.377 1.698-.566 2.64-.566.943 0 1.697.19 2.641.566.753.377 1.319.943 1.885 1.508.943.943 1.32 2.263 1.32 3.772.189 1.32-.377 2.641-1.32 3.773zM52.86 17.753h-3.772a.815.815 0 00-.754.755.816.816 0 00.754.754h3.772a.815.815 0 00.755-.754.816.816 0 00-.755-.755v0zM33.625 29.451c-1.32-1.32-3.017-2.075-5.091-2.075-1.886 0-3.772.755-5.091 2.075-.377.377-.755.943-1.132 1.508a6.798 6.798 0 00-1.131 3.772c0 1.32.377 2.641 1.131 3.773.377.565.755.942 1.131 1.508 1.32 1.32 3.207 2.075 5.092 2.075 1.885 0 3.772-.755 5.091-2.075.377-.377.755-.943 1.132-1.508.565-1.132 1.131-2.263 1.131-3.773a6.8 6.8 0 00-1.131-3.772c-.377-.565-.755-.942-1.132-1.508zm-.754 9.053c-.566.565-1.132 1.131-1.886 1.508-.755.377-1.697.754-2.641.754s-1.886-.188-2.64-.754c-.754-.377-1.32-.943-1.886-1.508a6.071 6.071 0 01-1.32-3.773c0-1.509.566-2.64 1.32-3.772.566-.565 1.132-1.131 1.886-1.508.755-.377 1.697-.566 2.64-.566.942 0 1.697.19 2.64.566.755.377 1.32.943 1.887 1.508.942.943 1.32 2.263 1.32 3.772.189 1.32-.377 2.641-1.32 3.773v0z" fill="#FC0012" stroke="#FC0012" stroke-width=".3"/></svg>