<svg width="121" height="48" fill="none" xmlns="http://www.w3.org/2000/svg"><path d="M111.389 16.892L85.757 14.5c-.683 0-1.538-.342-2.222-.513L65.593 5.443C59.613 2.538 52.777 1 46.113 1 34.15 1 22.702 5.443 13.986 13.304c-.342.17-.683.342-1.026.342l-4.614.17c-1.879-.17-3.759.684-5.126 2.05C1.853 17.234 1 18.943 1 20.994v6.152c0 7.177 5.81 13.157 13.158 13.157h1.366c1.88 3.93 5.81 6.836 10.425 6.836 4.613 0 8.715-2.734 10.424-6.836h53.826c1.88 3.93 5.81 6.836 10.424 6.836 4.956 0 9.057-3.076 10.766-7.347 5.468-1.539 9.398-6.665 9.398-12.475.343-5.98-3.93-10.252-9.398-10.424v0zM15.183 38.593h-.854A11.817 11.817 0 013.734 31.93h11.62c-.34 1.026-.512 2.222-.512 3.418-.17 1.026 0 2.05.341 3.247v0zm20.677 0c-.17.513-.342.855-.513 1.367a10.232 10.232 0 01-9.056 5.468c-3.93 0-7.348-2.222-8.886-5.468-.17-.341-.342-.854-.513-1.367-.342-1.025-.683-2.221-.683-3.418 0-1.196.17-2.392.683-3.417.17-.513.342-.854.513-1.367 1.709-3.246 5.127-5.468 8.886-5.468 3.93 0 7.177 2.222 8.885 5.468.171.342.343.854.513 1.367.342 1.025.684 2.221.684 3.418 0 1.196-.17 2.392-.513 3.417v0zm54.169 0H37.227c.342-1.025.512-2.221.512-3.418 0-1.196-.17-2.392-.512-3.417h52.802c-.341 1.025-.513 2.221-.513 3.418 0 1.196.172 2.221.513 3.417zm20.506-.34c-.172.512-.342 1.025-.513 1.366-1.709 3.418-5.127 5.639-9.056 5.639-3.93 0-7.349-2.222-8.886-5.469-.172-.34-.342-.853-.513-1.366-.342-1.026-.683-2.222-.683-3.418 0-1.196.17-2.392.683-3.418.17-.513.341-.854.513-1.367 1.709-3.247 5.126-5.468 8.886-5.468 3.929 0 7.177 2.222 8.885 5.468.171.343.342.854.512 1.367.342 1.026.685 2.222.685 3.418a9.974 9.974 0 01-.513 3.247zm1.537-.514c.172-.854.342-1.708.342-2.563 0-1.196-.17-2.392-.512-3.417h6.664c-1.196 2.734-3.589 4.955-6.494 5.98v0zm-.683-7.347c-1.88-3.93-5.81-6.835-10.423-6.835s-8.715 2.735-10.424 6.835H36.713c-1.88-3.93-5.81-6.835-10.424-6.835s-8.715 2.735-10.424 6.835H3.222a9.949 9.949 0 01-.513-3.246h3.418a.738.738 0 00.683-.684.738.738 0 00-.683-.683H2.709v-4.272h3.418a.738.738 0 00.683-.683.738.738 0 00-.683-.684H2.88c.171-1.367.684-2.734 1.71-3.759 1.025-1.024 2.562-1.538 3.93-1.538h.17l4.615-.17a3.297 3.297 0 001.709-.513C23.558 6.47 34.835 2.198 46.456 2.198c6.493 0 12.987 1.538 18.967 4.272l17.943 8.544c.854.342 1.709.684 2.563.684l25.631 2.392c3.077.17 5.64 1.71 7.007 4.101h-6.664a.741.741 0 00-.684.684.742.742 0 00.684.683h7.347c.342 1.026.684 2.05.684 3.246 0 1.367-.171 2.563-.684 3.76h-7.86v-.171l-.001-.001z" fill="#FC0012" stroke="#FC0012" stroke-width=".3"/><path d="M105.578 30.394c-1.196-1.196-2.735-1.88-4.614-1.88-1.71 0-3.418.684-4.614 1.88-.341.342-.684.854-1.026 1.367a6.163 6.163 0 000 6.835c.342.513.684.855 1.026 1.367 1.196 1.196 2.905 1.88 4.614 1.88 1.879 0 3.418-.684 4.614-1.88.341-.342.683-.854 1.025-1.367.512-1.025 1.025-2.05 1.025-3.417a6.163 6.163 0 00-1.025-3.418c-.342-.513-.684-.854-1.025-1.367v0zm-.684 8.202c-.512.513-1.025 1.026-1.709 1.367-.683.341-1.538.684-2.392.684-.854 0-1.709-.171-2.392-.684-.684-.342-1.196-.854-1.71-1.367a5.504 5.504 0 01-1.195-3.417c0-1.368.513-2.393 1.196-3.418.513-.513 1.025-1.026 1.709-1.367.683-.341 1.537-.513 2.392-.513s1.537.17 2.392.513c.684.342 1.197.854 1.709 1.367.854.854 1.196 2.05 1.196 3.418.171 1.366-.342 2.392-1.196 3.417zM44.575 19.798h-3.418a.738.738 0 00-.683.684.738.738 0 00.683.683h3.418a.738.738 0 00.683-.683.738.738 0 00-.683-.684v0zm-13.67 10.596c-1.196-1.196-2.735-1.88-4.614-1.88-1.88 0-3.418.684-4.614 1.88-.342.342-.684.854-1.026 1.367a6.164 6.164 0 00-1.025 3.418c0 1.196.342 2.392 1.025 3.417.342.513.684.855 1.026 1.367 1.196 1.196 2.905 1.88 4.614 1.88 1.88 0 3.418-.684 4.614-1.88.341-.341.683-.854 1.025-1.367.513-1.025 1.026-2.05 1.026-3.417a6.165 6.165 0 00-1.026-3.418c-.342-.513-.683-.854-1.025-1.367zm-.684 8.202c-.512.513-1.025 1.026-1.709 1.367-.683.341-1.538.684-2.392.684-.854 0-1.709-.171-2.392-.684-.684-.341-1.196-.854-1.709-1.367a5.503 5.503 0 01-1.196-3.417c0-1.368.513-2.393 1.196-3.418.513-.513 1.026-1.026 1.709-1.367.683-.341 1.538-.513 2.392-.513.854 0 1.538.17 2.392.513.684.342 1.197.854 1.71 1.367.854.854 1.196 2.05 1.196 3.418.17 1.366-.343 2.392-1.197 3.417zm45.455-24.092L60.639 7.668c-2.222-1.026-4.444-1.709-6.665-2.222-3.758-.855-7.69-1.025-11.62-.17l-1.367.17c-5.126 1.026-9.91 3.589-13.5 7.348-.512.512-.683 1.367-.341 2.05.34.683.854 1.196 1.708 1.196l46.138 1.026c.513 0 1.026-.343 1.197-.855.342-1.026 0-1.539-.513-1.71v.003zm-37.765.17l-8.886-.17c-.342 0-.513-.343-.513-.343s-.17-.342.17-.512c2.564-2.735 5.811-4.785 9.229-5.981v7.006zm1.196 0V7.155c.683-.17 1.538-.342 2.222-.513l1.366-.17c1.71-.342 3.248-.513 4.956-.513 2.05 0 4.1.17 6.151.683 2.222.513 4.442 1.197 6.493 2.222l14.354 6.664-35.543-.855.001.001z" fill="#FC0012" stroke="#FC0012" stroke-width=".3"/></svg>