<svg width="47" height="38" fill="none" xmlns="http://www.w3.org/2000/svg"><path d="M2.941 38c-.075 0-.15 0-.188-.038a.65.65 0 01-.453-.377L.226 33.739c-.188-.377-.075-.83.302-1.018l1.244-.679-.679-1.433c-.15-.339-.037-.754.264-.942l1.358-.867-.717-1.509c-.15-.339-.037-.754.264-.942l1.396-.943-.717-1.583a.733.733 0 01-.037-.49l1.432-5.467c-2.262-2.074-3.167-5.355-2.3-8.484.603-2.15 1.999-3.959 3.959-5.052 1.96-1.094 4.185-1.358 6.372-.754 4.45 1.244 7.05 5.882 5.769 10.33-.867 3.168-3.47 5.694-6.41 6.297L7.428 35.21c-.038.189-.189.34-.34.453l-3.77 2.187a.54.54 0 01-.377.15zm-1.056-4.3l1.358 2.489 2.827-1.66 4.336-15.156a.724.724 0 01.604-.528c2.564-.34 4.864-2.526 5.656-5.316a6.837 6.837 0 00-4.752-8.446 6.933 6.933 0 00-5.203.603 6.913 6.913 0 00-3.242 4.11c-.754 2.677.113 5.505 2.187 7.201.226.189.339.49.264.792l-1.47 5.656.866 1.923c.151.339.038.716-.264.942l-1.394.905.716 1.47c.15.34.038.755-.264.943l-1.357.867.716 1.471a.73.73 0 01-.302.98l-1.282.754z" fill="#FC0012"/><path d="M10.821 11.607c-.226 0-.49-.037-.716-.113-.679-.188-1.244-.64-1.621-1.244a2.629 2.629 0 01-.227-1.998c.415-1.396 1.885-2.225 3.28-1.848.68.188 1.245.641 1.622 1.244.34.604.415 1.32.226 1.999a2.648 2.648 0 01-2.564 1.96zm0-3.77c-.49 0-.98.34-1.093.83-.076.301-.038.603.113.867.15.263.415.452.679.527.603.189 1.244-.188 1.433-.791a1.156 1.156 0 00-.114-.867 1.169 1.169 0 00-.678-.528c-.151-.038-.227-.038-.34-.038zm6.485 6.937a7.176 7.176 0 01-4.411-1.508c-.34-.264-.377-.716-.15-1.056.263-.34.716-.377 1.055-.151 1.018.792 2.224 1.17 3.506 1.17a5.6 5.6 0 002.903-.793.731.731 0 011.018.264.731.731 0 01-.264 1.018c-1.093.717-2.375 1.056-3.657 1.056z" fill="#FC0012"/><path d="M10.856 7.836h-.038a.783.783 0 01-.716-.792c.264-3.77 3.43-6.711 7.2-6.711 3.357 0 6.335 2.375 7.052 5.693a.767.767 0 01-.566.905.767.767 0 01-.905-.565c-.565-2.677-2.903-4.562-5.58-4.562-2.979 0-5.505 2.337-5.693 5.316-.038.377-.377.716-.754.716z" fill="#FC0012"/><path d="M35.025 32.419a.743.743 0 01-.527-.226l-12.82-12.82c-.301-.301-.98-1.093-.98-2.036l-.792-8.332v-.076c0-1.018.302-1.772.98-2.488.68-.679 1.434-.98 2.3-.98h.265l8.332.754c.98 0 1.734.716 2.036.98l12.82 12.82a.73.73 0 010 1.055L35.553 32.193c-.113.15-.301.226-.528.226zM21.415 8.892l.791 8.332v.076c0 .301.227.678.566 1.018l12.291 12.291 9.992-10.029L32.763 8.288c-.339-.339-.754-.565-1.017-.565h-.076l-8.483-.792c-.453 0-.83.189-1.207.566-.415.414-.566.791-.566 1.395z" fill="#FC0012"/><path d="M29.332 19.186a.746.746 0 01-.528-.227.73.73 0 010-1.055l3.658-3.658a.728.728 0 011.055 0 .728.728 0 010 1.056L29.86 18.96a.746.746 0 01-.528.227zm4.262 4.26a.744.744 0 01-.528-.226.728.728 0 010-1.056l3.657-3.657a.73.73 0 011.056 0 .729.729 0 010 1.056l-3.657 3.657a.746.746 0 01-.528.226z" fill="#FC0012"/></svg>