<svg width="99" height="48" fill="none" xmlns="http://www.w3.org/2000/svg"><path d="M87.005 19.434l-8.177-.563c-1.269-.141-2.256-.565-3.102-1.551l-5.78-6.486C63.882 4.207 55.422.4 46.398.4h-2.82a3.79 3.79 0 00-3.806 3.807v11.138H2.833c-.282 0-.564.282-.564.565 0 .282.282.564.564.564h2.961v2.82h-.423c-2.256 0-3.948 1.692-4.089 3.947L1 31.279a8.845 8.845 0 008.883 8.883h2.82c.845 4.37 4.653 7.614 9.305 7.614 4.512 0 8.46-3.243 9.305-7.614h39.901c.846 4.37 4.653 7.614 9.306 7.614s8.46-3.243 9.305-7.614a8.738 8.738 0 005.922-2.82c1.692-1.692 2.538-3.948 2.538-6.345-.423-6.063-5.217-10.997-11.28-11.561v0zm-51.462-2.82h4.089v1.128c0 .987-.705 1.692-1.692 1.692h-2.397v-2.82zm-14.381 0h13.253v2.82H21.162v-2.82h0zm-14.382 0h13.253v2.82H6.781v-2.82h0zM1.987 27.612h2.96c.283 0 .565-.282.565-.564 0-.281-.282-.564-.564-.564H1.987l.14-3.102c.142-1.551 1.41-2.82 2.962-2.82h32.57a2.828 2.828 0 002.82-2.82V4.348a2.828 2.828 0 012.82-2.82h2.819c8.6 0 16.92 3.666 22.7 10.01l5.78 6.486c.987 1.128 2.398 1.833 3.807 1.833l8.178.565c2.82.282 5.358 1.55 7.19 3.524h-5.64c-.281 0-.563.282-.563.564s.282.565.564.565h6.486c1.128 1.692 1.832 3.525 1.974 5.78H85.596c-1.55-1.268-3.524-1.973-5.64-1.973-2.115 0-4.088.704-5.64 1.973h-47.09c-1.551-1.268-3.525-1.973-5.64-1.973-2.115 0-4.089.704-5.64 1.973h-14.1l.142-3.243v0zM12.28 39.173H9.6c-4.088 0-7.472-3.243-7.754-7.19h12.83c-1.55 1.692-2.537 3.947-2.537 6.485.141.141.141.423.141.704v.001zm17.764 0v.564c0 .142 0 .424-.14.565-.846 3.665-4.23 6.485-8.178 6.485-3.948 0-7.332-2.82-8.178-6.485 0-.141 0-.423-.14-.565v-.564c0-.282-.142-.563-.142-.845 0-2.68 1.27-4.936 3.102-6.486.282-.14.424-.423.705-.564.281-.141.704-.423.987-.564 1.128-.565 2.255-.846 3.524-.846 1.269 0 2.538.282 3.525.846.282.14.705.282.987.564.282.14.423.423.705.564 1.833 1.551 3.102 3.807 3.102 6.486.282.282.14.563.14.845h.002zm40.889 0h-39.62v-.845a9.547 9.547 0 00-2.537-6.486H73.47c-1.55 1.692-2.537 3.948-2.537 6.486a.896.896 0 000 .845v0zm17.623 0v.564c0 .142 0 .424-.14.565-.846 3.665-4.23 6.485-8.178 6.485-3.948 0-7.332-2.82-8.178-6.485 0-.141 0-.423-.14-.565v-.564c0-.282-.142-.563-.142-.845 0-2.68 1.27-4.936 3.102-6.486.282-.14.423-.423.705-.564.281-.141.705-.423.987-.564 1.128-.565 2.256-.846 3.525-.846 1.269 0 2.538.282 3.525.846.281.14.705.282.987.564.282.14.423.423.704.564 1.833 1.551 3.102 3.807 3.102 6.486.282.282.282.563.141.845zm6.204-2.396c-1.27 1.41-3.102 2.114-4.935 2.396v-.704c0-2.538-.987-4.794-2.538-6.486h9.729c-.282 1.692-.987 3.384-2.256 4.794v0z" fill="#FC0012" stroke="#FC0012" stroke-width=".3"/><path d="M80.239 32.973c-2.961 0-5.5 2.397-5.5 5.5 0 .281 0 .563.142.845 0 .14 0 .423.141.564 0 .141.141.423.141.564.705 2.116 2.82 3.525 5.076 3.525 2.397 0 4.37-1.55 5.076-3.525 0-.14.14-.423.14-.564 0-.141.141-.423.141-.564 0-.282.141-.564.141-.846 0-3.102-2.396-5.499-5.498-5.499v0zm4.37 6.204c0 .141-.14.424-.14.565 0 .14-.142.423-.283.564-.704 1.41-2.114 2.397-3.948 2.397-1.69 0-3.242-.987-3.947-2.397-.141-.141-.141-.423-.282-.564 0-.141-.141-.424-.141-.565 0-.282-.14-.564-.14-.845 0-2.397 1.973-4.371 4.37-4.371 2.396 0 4.37 1.974 4.37 4.37.141.283.141.565.141.846zm-62.882-6.204c-2.961 0-5.499 2.397-5.499 5.5 0 .281 0 .563.141.845 0 .14 0 .423.141.564 0 .141.141.423.141.564.706 2.116 2.82 3.525 5.076 3.525 2.396 0 4.37-1.55 5.075-3.525 0-.14.141-.423.141-.564 0-.141.141-.423.141-.564 0-.282.141-.564.141-.846 0-3.102-2.396-5.499-5.498-5.499v0zm4.37 6.204c0 .141-.14.424-.14.565 0 .14-.142.423-.283.564-.704 1.41-2.115 2.397-3.947 2.397-1.692 0-3.243-.987-3.948-2.397-.141-.141-.141-.423-.282-.564 0-.141-.141-.424-.141-.565 0-.282-.141-.564-.141-.845 0-2.397 1.974-4.371 4.37-4.371 2.397 0 4.371 1.974 4.371 4.37.142.283.142.565.142.846zm20.161-18.473l24.673-.14c.564 0 1.128-.424 1.41-.987.282-.564.141-1.27-.282-1.693l-3.948-4.511C62.754 7.169 55.14 3.785 46.962 3.785h-2.114c-.565 0-1.128.564-1.128 1.128v13.395A2.338 2.338 0 0044.424 20c.705.423 1.27.704 1.834.704v0zm-1.27-15.932h2.115c7.755 0 15.227 3.384 20.304 9.305l3.947 4.512c.141.282.141.423.141.564 0 0-.14.283-.423.283l-24.673.14c-.424 0-.705-.14-.987-.423-.282-.282-.423-.564-.423-.986V4.772v0zm4.936 19.453h-2.82c-.282 0-.564.282-.564.563 0 .282.282.564.564.564h2.82c.282 0 .564-.282.564-.564s-.282-.563-.564-.563z" fill="#FC0012" stroke="#FC0012" stroke-width=".3"/></svg>