<svg width="103" height="102" fill="none" xmlns="http://www.w3.org/2000/svg"><g opacity=".03" fill="#FC0012"><path d="M51.492 50.919c8.808 0 15.975-7.167 15.975-15.976 0-8.808-7.167-15.975-15.975-15.975-8.81 0-15.976 7.167-15.976 15.975 0 8.809 7.167 15.976 15.976 15.976zm0-24.062c4.458 0 8.086 3.628 8.086 8.086 0 4.459-3.628 8.087-8.086 8.087-4.46 0-8.087-3.628-8.087-8.087 0-4.458 3.628-8.086 8.087-8.086z"/><path d="M87.576 67.683H71.25c9.53-11.495 14.362-21.86 14.362-30.835v-1.903C85.612 16.13 70.306.823 51.492.823s-34.12 15.307-34.12 34.122v1.903c0 8.975 4.83 19.34 14.36 30.835H15.408L.042 102h102.9L87.576 67.683zM25.26 36.848v-1.903c0-14.465 11.767-26.233 26.23-26.233 14.464 0 26.232 11.768 26.232 26.233v1.903c0 7.41-4.858 16.947-14.049 27.576C59 69.83 54.271 74.262 51.49 76.738c-2.762-2.457-7.445-6.846-12.106-12.225-9.24-10.666-14.124-20.232-14.124-27.665zm-4.742 38.724h18.334c5.478 5.611 9.906 9.234 10.148 9.431l2.49 2.027 2.49-2.027c.243-.197 4.67-3.82 10.15-9.431h18.333l8.302 18.54H12.216l8.302-18.54z"/></g></svg>