<svg width="34" height="33" fill="none" xmlns="http://www.w3.org/2000/svg"><path d="M16.126 16.074c2.826 0 5.126-2.3 5.126-5.126 0-2.826-2.3-5.126-5.126-5.126A5.132 5.132 0 0011 10.948c0 2.826 2.3 5.126 5.126 5.126zm0-7.72a2.598 2.598 0 012.595 2.594 2.598 2.598 0 01-2.595 2.595 2.598 2.598 0 01-2.595-2.595 2.598 2.598 0 012.595-2.595z" fill="#F1F7FE"/><path d="M28.087 21.453h-5.239c3.058-3.689 4.608-7.014 4.608-9.894v-.61C27.456 4.911 22.546 0 16.508 0 10.472 0 5.561 4.911 5.561 10.948v.611c0 2.88 1.55 6.205 4.608 9.894H4.93L0 32.464h33.017l-4.93-11.011zM8.091 11.559v-.61c0-4.642 3.776-8.418 8.416-8.418 4.641 0 8.417 3.776 8.417 8.417v.611c0 2.378-1.559 5.438-4.508 8.848a43.931 43.931 0 01-3.909 3.951 43.834 43.834 0 01-3.884-3.922c-2.965-3.422-4.532-6.492-4.532-8.877zM6.57 23.984h5.883c1.758 1.8 3.179 2.963 3.256 3.026l.8.65.798-.65c.078-.063 1.499-1.225 3.257-3.026h5.883l2.663 5.949H3.907l2.663-5.949z" fill="#F1F7FE"/></svg>