<svg width="109" height="103" fill="none" xmlns="http://www.w3.org/2000/svg"><path d="M86.501 0H22.393C10.045 0 0 10.046 0 22.393c0 12.348 10.046 22.393 22.393 22.393h16.305v18.092l-.796-.668c-3.935-3.303-10.093-3.034-13.726.6-3.807 3.806-3.558 9.857.582 13.33l13.94 11.698V99.11a3.19 3.19 0 003.19 3.19h38.283a3.19 3.19 0 003.19-3.19V63.26a9.585 9.585 0 00-8.387-9.497L57.839 51.63v-6.843h28.662c12.348 0 22.393-10.046 22.393-22.393C108.894 10.045 98.849 0 86.501 0zM45.078 95.92v-6.38h31.903v6.38H45.078zm29.107-35.824a3.195 3.195 0 012.796 3.165V83.16H43.049L28.86 71.252c-1.26-1.056-1.336-2.767-.172-3.931 1.308-1.308 3.697-1.412 5.114-.224l6.036 5.066c2.071 1.737 5.241.263 5.241-2.444V28.925c0-1.76 1.432-3.19 3.19-3.19 1.76 0 3.191 1.43 3.191 3.19v25.522a3.19 3.19 0 002.796 3.166l19.93 2.483zm12.316-21.69H57.84v-9.481c0-5.277-4.293-9.57-9.57-9.57-5.278 0-9.571 4.293-9.571 9.57v9.48H22.393c-8.83 0-16.012-7.183-16.012-16.012 0-8.83 7.183-16.012 16.012-16.012h64.108c8.83 0 16.012 7.183 16.012 16.012 0 8.83-7.183 16.012-16.012 16.012z" fill="#2ABB52" fill-opacity=".05"/></svg>