<svg width="38" height="36" fill="none" xmlns="http://www.w3.org/2000/svg"><path d="M30.186 0H7.814C3.505 0 0 3.506 0 7.814c0 4.31 3.506 7.815 7.814 7.815h5.69v6.313l-.278-.233c-1.373-1.152-3.522-1.059-4.79.21a3.124 3.124 0 00.204 4.651l4.864 4.082v3.934c0 .615.499 1.113 1.113 1.113h13.36c.615 0 1.113-.498 1.113-1.113v-12.51a3.345 3.345 0 00-2.927-3.314l-5.98-.745v-2.388h10.003c4.309 0 7.814-3.506 7.814-7.815C38 3.505 34.495 0 30.186 0zM15.73 33.473v-2.227h11.132v2.227H15.731zM25.888 20.97c.556.07.976.544.976 1.105v6.944H15.023l-4.952-4.155c-.44-.37-.466-.966-.06-1.373.456-.456 1.29-.492 1.784-.078l2.107 1.768c.722.606 1.829.092 1.829-.853V10.094c0-.614.5-1.114 1.113-1.114.614 0 1.113.5 1.113 1.114V19c0 .562.419 1.035.976 1.105l6.955.866zm4.298-7.569H20.184v-3.308a3.344 3.344 0 00-3.34-3.34 3.344 3.344 0 00-3.34 3.34v3.308h-5.69a5.594 5.594 0 01-5.587-5.588 5.594 5.594 0 015.587-5.587h22.372a5.594 5.594 0 015.587 5.587 5.594 5.594 0 01-5.587 5.588z" fill="#fff"/><path d="M29.338 4.78l-3.666 3.665-1.44-1.44A1.113 1.113 0 1022.66 8.58l2.226 2.227c.435.435 1.14.435 1.574 0l4.454-4.453a1.113 1.113 0 00-1.575-1.575z" fill="#fff"/></svg>