<svg width="376" height="265" fill="none" xmlns="http://www.w3.org/2000/svg"><path d="M82.543 96.364c16.252 0 32.138 4.945 45.65 14.21 13.513 9.265 24.045 22.433 30.264 37.841 6.219 15.407 7.846 32.36 4.675 48.716-3.17 16.357-10.996 31.381-22.487 43.173-11.492 11.792-26.132 19.822-42.071 23.076-15.94 3.253-32.46 1.583-47.475-4.798-15.014-6.382-27.847-17.19-36.876-31.056C5.195 213.66.376 197.358.376 180.682L0 168.636c0-22.145 4.25-44.074 12.51-64.534 8.258-20.46 20.363-39.05 35.623-54.71 15.26-15.659 33.376-28.08 53.314-36.555C121.385 4.362 142.755 0 164.336 0v48.182a114.1 114.1 0 00-44.948 9.106c-14.248 6.054-27.186 14.946-38.065 26.163a119.891 119.891 0 00-11.668 13.924 81.203 81.203 0 0112.888-1.035v.024zm211.289 0c16.251 0 32.138 4.945 45.65 14.21 13.513 9.265 24.044 22.434 30.263 37.841 6.219 15.407 7.847 32.36 4.676 48.716-3.17 16.357-10.996 31.381-22.487 43.173-11.492 11.792-26.133 19.822-42.072 23.076-15.939 3.253-32.46 1.583-47.474-4.798-15.014-6.382-27.847-17.19-36.876-31.056-9.029-13.866-13.848-30.168-13.848-46.844l-.375-12.046c0-44.725 17.314-87.618 48.133-119.243C290.24 17.766 332.04 0 375.624 0v48.182a114.098 114.098 0 00-44.947 9.106c-14.249 6.054-27.187 14.946-38.066 26.163a119.907 119.907 0 00-11.667 13.925 81.178 81.178 0 0112.888-1.037v.025z" fill="#fff" fill-opacity=".05"/></svg>