<svg width="78" height="55" fill="none" xmlns="http://www.w3.org/2000/svg"><path d="M60.877 35a16.732 16.732 0 01-9.47-2.95 17.409 17.409 0 01-6.278-7.853 17.934 17.934 0 01-.97-10.111 17.649 17.649 0 014.665-8.96A16.913 16.913 0 0157.55.336a16.634 16.634 0 019.849.996 17.15 17.15 0 017.65 6.446 17.834 17.834 0 012.872 9.722L78 20c0 4.596-.882 9.148-2.595 13.394a35.076 35.076 0 01-7.39 11.355 34.045 34.045 0 01-11.06 7.587A33.324 33.324 0 0143.91 55V45c3.2.009 6.368-.633 9.324-1.89a24.175 24.175 0 007.897-5.43 24.88 24.88 0 002.42-2.89 16.74 16.74 0 01-2.673.215V35zm-43.832 0a16.732 16.732 0 01-9.47-2.95 17.409 17.409 0 01-6.277-7.853 17.934 17.934 0 01-.97-10.111 17.65 17.65 0 014.664-8.96A16.913 16.913 0 0113.72.336a16.635 16.635 0 019.848.996 17.15 17.15 0 017.65 6.446 17.834 17.834 0 012.873 9.722l.078 2.5c0 9.283-3.592 18.185-9.985 24.749C17.79 51.312 9.119 55 .078 55V45c3.2.009 6.368-.633 9.324-1.89a24.174 24.174 0 007.897-5.43 24.89 24.89 0 002.42-2.89c-.884.143-1.778.215-2.674.215V35z" fill="#E7E7E7" fill-opacity=".3"/></svg>