<svg width="87" height="61" fill="none" xmlns="http://www.w3.org/2000/svg"><path d="M67.9 38.818a18.74 18.74 0 01-10.562-3.27 19.329 19.329 0 01-7.002-8.711 19.785 19.785 0 01-1.082-11.214 19.538 19.538 0 015.203-9.938A18.895 18.895 0 0164.192.373a18.651 18.651 0 0110.985 1.104 19.102 19.102 0 018.532 7.149 19.698 19.698 0 013.204 10.783L87 22.182a39.54 39.54 0 01-2.894 14.855 38.884 38.884 0 01-8.243 12.593 37.983 37.983 0 01-12.336 8.415A37.35 37.35 0 0148.975 61V49.91a26.536 26.536 0 0010.4-2.097 26.969 26.969 0 008.808-6.023 27.63 27.63 0 002.7-3.205c-.986.158-1.983.238-2.982.239v-.006zm-48.888 0c-3.76 0-7.436-1.138-10.562-3.27a19.328 19.328 0 01-7.003-8.711A19.785 19.785 0 01.365 15.623 19.538 19.538 0 015.57 5.685 18.895 18.895 0 0115.303.373a18.651 18.651 0 0110.985 1.104 19.103 19.103 0 018.532 7.149 19.698 19.698 0 013.205 10.783l.086 2.773c0 10.295-4.006 20.169-11.137 27.448C19.844 56.91 10.172 61 .087 61V49.91a26.543 26.543 0 0010.4-2.097 26.969 26.969 0 008.808-6.023 27.619 27.619 0 002.7-3.205 18.88 18.88 0 01-2.983.239v-.006z" fill="#E7E7E7" fill-opacity=".5"/></svg>