<svg width="45" height="40" fill="none" xmlns="http://www.w3.org/2000/svg"><path d="M41.556 16.263h-.382L24.862 2.347A2.785 2.785 0 0022.115 0a2.785 2.785 0 00-2.747 2.347L3.051 16.267A3.214 3.214 0 000 19.473V36.79C0 38.56 1.44 40 3.21 40h38.346c1.77 0 3.21-1.44 3.21-3.21V19.473c0-1.77-1.44-3.21-3.21-3.21zM22.115 1.756a1.026 1.026 0 010 2.05 1.026 1.026 0 010-2.05zm-2.329 2.542a2.78 2.78 0 002.329 1.264 2.78 2.78 0 002.329-1.264l14.025 11.965H5.761L19.786 4.298zM43.011 36.79c0 .802-.652 1.454-1.455 1.454H3.21a1.456 1.456 0 01-1.454-1.454V19.473c0-.802.652-1.454 1.454-1.454h38.346c.803 0 1.455.652 1.455 1.454V36.79z" fill="#FC0012"/><path d="M4.255 21.448a.903.903 0 100-1.805.903.903 0 000 1.805zm0 15.53a.903.903 0 100-1.806.903.903 0 000 1.806zm36.562-15.53a.903.903 0 100-1.805.903.903 0 000 1.805zm0 15.53a.903.903 0 100-1.806.903.903 0 000 1.806zM9.806 25.48c0-.677.578-1.086 1.593-1.086 1.184 0 1.509.536 1.946.536.508 0 .733-.649.733-.973 0-.931-1.847-1.128-2.679-1.128-1.622 0-3.426.719-3.426 2.82 0 3.342 4.526 2.693 4.526 4.808 0 .846-.733 1.227-1.58 1.227-1.438 0-1.819-1.086-2.397-1.086-.437 0-.803.592-.803.987 0 .818 1.41 1.748 3.257 1.748 1.946 0 3.356-1.043 3.356-3.06 0-3.651-4.526-3.045-4.526-4.793zm12.879 6.824l-2.721-8.87c-.127-.422-.649-.62-1.185-.62-.521 0-1.043.198-1.17.62l-2.722 8.87a.813.813 0 00-.028.141c0 .451.663.762 1.156.762.31 0 .55-.1.621-.367l.536-1.875H20.4l.536 1.875c.07.268.31.367.62.367.494 0 1.156-.325 1.156-.762 0-.042-.014-.084-.028-.14zm-5.132-2.778l1.226-4.329 1.227 4.33h-2.453zM28.969 31.6h-3.44v-8.136c0-.395-.466-.564-.917-.564-.465 0-.917.17-.917.564v9.165c0 .381.395.579.804.579h4.47c.366 0 .55-.41.55-.804 0-.41-.183-.804-.55-.804zm7.366 0h-3.99v-2.835h2.143c.395 0 .578-.38.578-.705 0-.38-.211-.733-.578-.733h-2.143v-2.82h3.99c.367 0 .578-.38.578-.818 0-.38-.183-.79-.578-.79h-5.02c-.408 0-.803.198-.803.578v9.152c0 .38.395.578.803.578h5.02c.395 0 .578-.409.578-.79 0-.437-.211-.817-.578-.817z" fill="#FC0012"/></svg>