<svg width="40" height="40" fill="none" xmlns="http://www.w3.org/2000/svg"><path d="M40 20.037V20c0-5.342-2.08-10.365-5.858-14.142A19.869 19.869 0 0020 0 19.869 19.869 0 005.858 5.858 19.868 19.868 0 000 19.96V20c0 5.342 2.08 10.364 5.858 14.142A19.869 19.869 0 0019.988 40h.019a19.868 19.868 0 0014.135-5.858 19.868 19.868 0 005.857-14.102v-.003zm-10.564 14.88l-1.719-1.136a1.172 1.172 0 00-1.291 1.956l.657.434a17.534 17.534 0 01-6.367 1.47l-.924-1.847a1.172 1.172 0 00-2.096 1.048l.353.706a17.52 17.52 0 01-6.249-1.915l.124-2.059a1.172 1.172 0 10-2.34-.14l-.047.78a17.8 17.8 0 01-4.453-4.777l1.135-1.72a1.172 1.172 0 10-1.956-1.29l-.434.657a17.534 17.534 0 01-1.47-6.367l1.847-.924a1.172 1.172 0 00-1.048-2.096l-.706.353a17.519 17.519 0 011.915-6.25l2.059.124c.023.002.047.002.07.002a1.172 1.172 0 00.07-2.341l-.78-.047a17.799 17.799 0 014.777-4.454l1.72 1.135a1.17 1.17 0 101.291-1.956l-.658-.434a17.533 17.533 0 016.367-1.47l.924 1.847a1.172 1.172 0 102.096-1.048l-.353-.706c2.235.247 4.344.912 6.25 1.915l-.124 2.059a1.172 1.172 0 102.34.14l.046-.779a17.799 17.799 0 014.454 4.777l-1.135 1.719a1.172 1.172 0 001.956 1.291l.434-.657a17.534 17.534 0 011.47 6.367l-1.848.923a1.172 1.172 0 001.049 2.097l.706-.353a17.519 17.519 0 01-1.916 6.249l-2.058-.124a1.172 1.172 0 00-.14 2.34l.779.046a17.8 17.8 0 01-4.777 4.454z" fill="#FC0012"/><path d="M20 7.531c-6.875 0-12.469 5.594-12.469 12.47 0 6.874 5.594 12.468 12.469 12.468 6.875 0 12.468-5.594 12.468-12.469 0-6.875-5.593-12.469-12.468-12.469zm0 15.063A2.597 2.597 0 0117.406 20 2.597 2.597 0 0120 17.407 2.597 2.597 0 0122.594 20 2.597 2.597 0 0120 22.594zM9.875 20c0-1.425.296-2.782.83-4.013l4.556 2.63a4.923 4.923 0 000 2.766l-4.556 2.63A10.068 10.068 0 019.875 20zm14.864-1.383l4.556-2.63c.533 1.231.83 2.588.83 4.013 0 1.425-.297 2.782-.83 4.013l-4.556-2.63a4.919 4.919 0 000-2.766zm3.381-4.658l-4.556 2.63a4.937 4.937 0 00-2.392-1.385v-5.26a10.128 10.128 0 016.948 4.015zm-9.292-4.016v5.261a4.937 4.937 0 00-2.393 1.385l-4.555-2.63a10.128 10.128 0 016.948-4.016zM11.88 26.042l4.555-2.63a4.937 4.937 0 002.393 1.384v5.261a10.128 10.128 0 01-6.948-4.015zm9.292 4.015v-5.261a4.937 4.937 0 002.392-1.385l4.556 2.63a10.128 10.128 0 01-6.948 4.016z" fill="#FC0012"/></svg>