<svg width="119" height="46" fill="none" xmlns="http://www.w3.org/2000/svg"><path d="M108.79 16.246l-17.046-.669c-.836 0-1.838-.334-2.506-.668L76.37 6.22C70.855 2.543 64.504.537 57.986.537h-41.11c-3.008 0-5.849 1.336-7.687 3.843L2.17 13.572C1.334 14.574 1 15.912 1 17.248v8.69c0 7.02 5.682 12.868 12.868 12.868h1.337c1.838 3.843 5.682 6.685 10.194 6.685 4.511 0 8.523-2.674 10.194-6.685H84.39c1.838 3.843 5.682 6.685 10.194 6.685 4.513 0 8.523-2.674 10.194-6.685h.334c7.019 0 12.868-5.682 12.868-12.868.334-5.347-3.844-9.526-9.191-9.692zM14.87 37.469h-.835c-4.513 0-8.523-2.674-10.362-6.517h11.364c-.334 1.003-.502 2.173-.502 3.343-.167 1.002 0 2.172.335 3.174h0zm20.054 0c-.166.502-.334.836-.501 1.337a10.007 10.007 0 01-8.858 5.348c-3.844 0-7.185-2.173-8.69-5.348-.167-.334-.334-.836-.501-1.337-.334-1.002-.668-2.172-.668-3.342s.167-2.34.668-3.342c.166-.502.334-.836.502-1.337 1.67-3.175 5.013-5.347 8.69-5.347 3.843 0 7.018 2.172 8.69 5.347.167.334.333.836.5 1.337.335 1.002.67 2.172.67 3.342s-.168 2.34-.503 3.342h.001zm49.3 0H36.261c.334-1.002.502-2.172.502-3.342s-.168-2.34-.502-3.342h47.962c-.334 1.002-.5 2.172-.5 3.342s.166 2.34.5 3.342h0zm20.054 0c-.167.502-.335.836-.501 1.337-1.672 3.175-5.014 5.348-8.69 5.348a10.008 10.008 0 01-8.858-5.348c-.167-.334-.334-.836-.501-1.337-.334-1.002-.669-2.172-.669-3.342s.168-2.34.669-3.342c.167-.502.334-.836.501-1.337 1.671-3.175 5.014-5.347 8.69-5.347 3.844 0 7.019 2.172 8.69 5.347.168.334.334.836.502 1.337.334 1.002.668 2.172.668 3.342s-.167 2.34-.501 3.342zm1.337 0c.334-1.002.501-2.172.501-3.342s-.167-2.34-.501-3.342h10.194a11.76 11.76 0 01-10.194 6.684zm-.502-7.854c-1.838-3.844-5.681-6.685-10.194-6.685-4.512 0-8.523 2.674-10.194 6.685H35.76c-1.838-3.844-5.681-6.685-10.194-6.685-4.512 0-8.523 2.674-10.194 6.685H3.006a9.728 9.728 0 01-.502-3.175h3.343a.72.72 0 00.668-.669.72.72 0 00-.668-.668H2.504v-4.178h3.343a.72.72 0 00.668-.669.72.72 0 00-.668-.668H2.504v-2.34a4.54 4.54 0 011.003-2.84l7.019-9.192c1.504-2.006 4.01-3.343 6.517-3.343h41.111c6.35 0 12.366 1.839 17.715 5.348l12.868 8.69c1.002.501 2.005.836 3.175 1.002l17.046.668c3.008.167 5.515 1.671 6.852 4.011h-6.518a.722.722 0 00-.668.669.723.723 0 00.668.668h7.186c.334 1.002.668 2.006.668 3.175 0 1.336-.166 2.506-.668 3.676h-11.364v-.167l-.001.002z" fill="#111010" stroke="#111010" stroke-width=".3"/><path d="M56.483 4.547L17.378 4.38c-2.34 0-4.345 1.17-5.682 3.008l-3.51 5.181c-.333.668-.501 1.337-.167 2.005.334.668 1.003 1.003 1.67 1.003l16.378.334h.334l55.483 1.336c.334 0 .668-.167.668-.501v-.502l-4.178-3.51c-5.682-5.18-13.703-8.188-21.892-8.188h.001zM26.068 14.74l-16.043-.334c-.334 0-.502-.335-.502-.335 0-.167-.166-.334 0-.668l3.51-5.18c1.002-1.505 2.674-2.34 4.512-2.34h12.032l-3.509 8.857zm1.337.167l3.509-9.024 17.714.167 1.671 9.526-22.894-.669zm24.064.502L49.8 5.884h6.517c7.854 0 15.541 2.841 21.558 7.855l2.674 2.34-29.078-.668v-.001zm47.964 14.206c-1.17-1.17-2.675-1.839-4.513-1.839-1.67 0-3.342.669-4.512 1.839-.335.334-.669.836-1.003 1.336a6.028 6.028 0 000 6.685c.334.502.668.836 1.003 1.337 1.17 1.17 2.841 1.838 4.512 1.838 1.838 0 3.343-.668 4.513-1.838.334-.334.668-.836 1.002-1.337.502-1.002 1.002-2.005 1.002-3.342a6.028 6.028 0 00-1.002-3.343c-.334-.501-.668-1.002-1.002-1.336zm-.502 7.855c-.502.501-1.003 1.002-1.67 1.336-.67.334-1.505.669-2.34.669-.837 0-1.672-.168-2.34-.669-.67-.334-1.17-.836-1.672-1.336a5.386 5.386 0 01-1.17-3.343c0-1.337.502-2.34 1.17-3.342.502-.502 1.003-1.003 1.671-1.337.668-.334 1.504-.502 2.34-.502.836 0 1.504.167 2.34.502.668.334 1.17.836 1.67 1.337.837.835 1.171 2.006 1.171 3.342a5.386 5.386 0 01-1.17 3.343zM64.004 20.09H60.66a.72.72 0 00-.668.668.72.72 0 00.668.669h3.343a.72.72 0 00.668-.669.72.72 0 00-.668-.668zm-25.067 0h-3.342a.72.72 0 00-.669.668.72.72 0 00.669.669h3.342a.72.72 0 00.668-.669.72.72 0 00-.668-.668zm-8.857 9.525c-1.17-1.17-2.673-1.839-4.512-1.839-1.67 0-3.342.669-4.512 1.839-.335.334-.669.836-1.003 1.336a6.026 6.026 0 00-1.002 3.343c0 1.17.334 2.34 1.002 3.342.334.502.668.836 1.003 1.337 1.17 1.17 2.84 1.838 4.512 1.838 1.838 0 3.343-.668 4.513-1.838.334-.334.668-.836 1.002-1.337.502-1.002 1.003-2.005 1.003-3.342 0-1.17-.335-2.34-1.003-3.343-.334-.501-.668-1.002-1.002-1.336zm-.668 7.855c-.501.501-1.002 1.002-1.67 1.336-.669.334-1.505.669-2.34.669-.834 0-1.67-.168-2.34-.669-.668-.334-1.17-.836-1.67-1.336a5.382 5.382 0 01-1.17-3.343c0-1.337.501-2.34 1.17-3.342.501-.502 1.002-1.003 1.67-1.337.669-.334 1.505-.502 2.34-.502.836 0 1.505.167 2.34.502.668.334 1.17.836 1.67 1.337.836.835 1.17 2.006 1.17 3.342.167 1.337-.334 2.507-1.17 3.343z" fill="#111010" stroke="#111010" stroke-width=".3"/></svg>