<svg width="127" height="82" fill="none" xmlns="http://www.w3.org/2000/svg"><path fill-rule="evenodd" clip-rule="evenodd" d="M64.718 50.225c5.355-7.573 5.264-13.568.12-18.813l-.12 18.813zm16.35 3.695L77.1 57.856l1.216-4.028.16-.133-.324-.027-4.025 3.995 1.22-4.033.228-.182-.439-.04-3.977 3.947 1.216-4.028.177-.144-.355-.03-3.926 3.891 1.212-4.031.11-.093-.42-.037-3.85 3.814 1.207-4.028.023-.018-.435-.038-3.693 3.661 1.17-3.88-1.012-.09.9-4.53-.458-18.015 15.97 1.391c11.04 4.794 12.793 11.718 5.26 20.773l-2.524 2.05-.666-.058.001.005zM63.38 30.06c-.115-.1-.235-.197-.355-.295l.355.296zm22.825 10.534l-13.762-1.199a1.076 1.076 0 00-.795.262 1.132 1.132 0 00-.126 1.572c.188.225.455.365.744.39l13.76 1.198c.288.024.574-.07.795-.261a1.131 1.131 0 00.126-1.572 1.083 1.083 0 00-.744-.39h.002zm-1.342 3.926l-13.761-1.198a1.07 1.07 0 00-.821.243 1.11 1.11 0 00-.398.773 1.14 1.14 0 00.27.829 1.093 1.093 0 00.77.376l13.763 1.199a1.068 1.068 0 00.82-.244 1.112 1.112 0 00.398-.773 1.14 1.14 0 00-.27-.828 1.096 1.096 0 00-.77-.377zm-1.34 3.927l-13.761-1.2a1.076 1.076 0 00-.797.258 1.132 1.132 0 00-.132 1.572c.187.226.454.367.742.392l13.77 1.203c.29.024.576-.07.796-.262a1.133 1.133 0 00.126-1.573 1.085 1.085 0 00-.744-.39zM70.995 22.703l-1.276 1.648 1.85 2.215-.574-3.863zm-10.95-10.615l3.614.496 9.01 9.308 2.25.544 3.956 7.737-8.747-.892-10.083-17.193zm14.38 12.11l-1.777-.363 1.066 4.088 2.321.236-1.613-3.952.003-.009z" fill="#36454D"/><path fill-rule="evenodd" clip-rule="evenodd" d="M38.099 26.793c1.959-6.242 5.879-11.648 11.15-15.382a28.69 28.69 0 0118.01-5.27c6.406.318 12.532 2.786 17.427 7.022 4.894 4.236 8.285 10.005 9.645 16.41-.427-6.93-3.08-13.521-7.545-18.754C82.32 5.586 76.29 2.005 69.63.63 52.925-2.82 36.652 8.238 33.283 25.306a32.195 32.195 0 001.492 17.675c2.142 5.625 5.818 10.504 10.592 14.057a29.85 29.85 0 01-6.655-10.34 30.375 30.375 0 01-1.968-12.214l12.99 1.905 2.537-7.885 6.67-7.083-9.183 6.244-2.609 5.555-5.54-1-4.559-.825c.034-.223.07-.448.107-.674l9.523 1.646 2.424-5.04 9.385-6.496.19-.438 5.412 6.166-.338 1.04 5.539 1.535-9.75-16.752-9.396 7.203-5.081 8.158-6.966-.95zm27.14-1.985L59.08 15.3l.437-.982 6.188 10.19-.468.301zM58.24 16.97l-6.93 2.237 7.252-3.728 1.226 2.221-.256.687-1.293-1.417h.001z" fill="#F0803B"/><path d="M3.892 65.273v1.547H8.35v3.01H3.89v1.407h5.27l-.826 3.414H0V61.858h8.436l.69 3.415H3.891zm13.815 9.377h-4.459l2.495-6.228-2.461-6.564h4.355l1.24 4.628 1.224-4.628h4.355l-2.463 6.564 2.515 6.229h-4.495l-1.135-4.064-1.171 4.064zm13.763-.006a5.092 5.092 0 01-1.244-.133 1.824 1.824 0 01-.824-.44 1.798 1.798 0 01-.466-.81 4.49 4.49 0 01-.145-1.24v-7.506c-.012-.44.04-.878.154-1.302a1.73 1.73 0 01.49-.808 1.92 1.92 0 01.86-.423c.423-.09.853-.13 1.284-.124h5.423l.711 3.414h-4.348a.483.483 0 00-.474.132.507.507 0 00-.129.484v4.646c-.003.121.005.243.025.363a.4.4 0 00.103.21c.062.06.14.097.224.108.134.019.27.027.405.025h4.374l-.844 3.404H31.47zm10.51 0l3.158-12.786h5.63l3.16 12.786H49.84l-.26-1.366h-3.227l-.276 1.366H41.98zm4.925-4.101h2.1l-1.05-5.243-1.05 5.243zm12.919 4.107l-3.375-12.792h4.219l1.843 8.816 1.859-8.816h4.114l-3.357 12.793h-5.303zm11.182-.006l3.15-12.793h5.636l3.161 12.793h-4.096L78.6 73.27h-3.22l-.275 1.373h-4.098zm4.924-4.101h2.1L76.98 65.3l-1.05 5.243zm10.337-8.685h8.953l.706 3.415H92.86v9.378h-4.235v-9.378h-3.064l.706-3.415zm16.312 12.785a2.047 2.047 0 01-1.567-.615 2.179 2.179 0 01-.449-.732 2.246 2.246 0 01-.136-.852v-8.368c-.01-.292.037-.583.137-.856.1-.274.253-.524.448-.737a2.07 2.07 0 01.719-.482c.27-.108.559-.156.848-.143h6.398a2.062 2.062 0 011.574.625 2.203 2.203 0 01.596 1.593v8.375c.005.31-.056.615-.178.898a2.066 2.066 0 01-.499.693c-.217.197-.468.35-.741.449a2.508 2.508 0 01-.903.16l-6.247-.008zm4.047-3.406a.613.613 0 00.464-.133.717.717 0 00.12-.483V65.87a.685.685 0 00-.129-.492.69.69 0 00-.473-.124h-1.67a.651.651 0 00-.473.124.737.737 0 00-.112.476v4.767a.76.76 0 00.112.492.644.644 0 00.473.124h1.688zm14.09-.545h-.517v3.952h-4.088V61.858h7.713c.988 0 1.708.224 2.161.67.452.447.679 1.174.68 2.18v3.36c.001.263-.04.525-.12.775-.076.238-.197.46-.356.65-.16.192-.359.346-.584.449a1.855 1.855 0 01-.8.167c.237.043.454.163.618.343.165.204.286.441.356.696L127 74.644h-4.381l-1.137-3.38a.991.991 0 00-.285-.43.71.71 0 00-.472-.15l-.009.008zm-.587-2.906h1.534c.448 0 .745-.067.889-.201.143-.135.225-.373.225-.714v-1.017c0-.505-.237-.757-.711-.757h-1.935v2.69h-.002zM26.51 81.766l-.237-1.173h1.805a.09.09 0 00.066-.018.115.115 0 00.018-.073v-.3c0-.07-.032-.105-.096-.105h-.958a1.917 1.917 0 01-.437-.041.561.561 0 01-.272-.144.538.538 0 01-.142-.27 1.886 1.886 0 01-.043-.44v-.882a1.787 1.787 0 01.048-.453.613.613 0 01.16-.29.656.656 0 01.293-.158 1.7 1.7 0 01.441-.047h2.133l.236 1.171h-1.903a.08.08 0 00-.063.018.116.116 0 00-.015.073v.34a.136.136 0 00.017.072.085.085 0 00.071.024h1.042a1.9 1.9 0 01.432.04.543.543 0 01.275.141.577.577 0 01.148.278c.032.145.047.293.044.441v.87c.004.15-.013.3-.05.445a.622.622 0 01-.16.285.644.644 0 01-.29.151 1.894 1.894 0 01-.44.045h-2.124zm5.221 0v-4.394h1.385v3.221h1.555l-.29 1.173h-2.65zm5.702 0a.7.7 0 01-.688-.464.762.762 0 01-.046-.293v-2.877a.771.771 0 01.2-.545.71.71 0 01.534-.214h2.196a.698.698 0 01.533.214.753.753 0 01.205.545v2.879a.752.752 0 01-.062.307.789.789 0 01-.432.394.871.871 0 01-.311.054h-2.13zm1.39-1.173a.21.21 0 00.16-.045.248.248 0 00.042-.167v-1.635a.248.248 0 00-.044-.17.245.245 0 00-.164-.042h-.574a.224.224 0 00-.162.041.248.248 0 00-.039.164v1.634c-.007.06.007.12.04.171a.22.22 0 00.161.042l.58.007zm5.293-2.05a.229.229 0 00-.162.043.228.228 0 00-.044.17v1.679a.238.238 0 00.044.17.24.24 0 00.162.042h.71v-.592h-.271v-.895h1.555v2.543L44.827 82v-.236H43.46a1.85 1.85 0 01-.44-.043.567.567 0 01-.281-.147.597.597 0 01-.151-.278 1.721 1.721 0 01-.045-.427v-2.555a1.834 1.834 0 01.045-.442.639.639 0 01.15-.294.598.598 0 01.282-.16c.144-.035.292-.05.44-.047h2.147l.236 1.172h-1.727zm3.999 3.223l1.082-4.394h1.934l1.09 4.394h-1.408l-.089-.472h-1.107l-.094.472h-1.408zm1.692-1.409h.721l-.355-1.801-.355 1.801h-.011zm4.405-2.985h1.32l1.065 1.97v-1.97h1.349v4.394H56.62l-1.065-1.923v1.923h-1.343v-4.394zm8.164 4.394a1.784 1.784 0 01-.428-.045.643.643 0 01-.285-.15.623.623 0 01-.16-.28 1.53 1.53 0 01-.05-.425v-2.59a1.61 1.61 0 01.054-.447.588.588 0 01.169-.278.64.64 0 01.295-.145 1.92 1.92 0 01.44-.042h1.865l.241 1.172h-1.49a.175.175 0 00-.158.05.184.184 0 00-.049.162v1.596a.587.587 0 00.01.124.133.133 0 00.035.072c.02.02.047.033.076.037.046.007.092.01.139.009h1.503l-.29 1.173-1.917.007zm4.976 0a.698.698 0 01-.688-.463.753.753 0 01-.046-.294v-2.877a.769.769 0 01.2-.544.71.71 0 01.534-.215h2.203a.705.705 0 01.698.466.772.772 0 01.049.293v2.879a.749.749 0 01-.062.307.743.743 0 01-.178.24.806.806 0 01-.254.154.886.886 0 01-.311.054h-2.145zm1.39-1.173a.216.216 0 00.16-.045.258.258 0 00.04-.167v-1.635a.238.238 0 00-.044-.17.24.24 0 00-.162-.042h-.574a.233.233 0 00-.163.042.26.26 0 00-.038.163v1.635c-.006.06.007.12.038.17a.232.232 0 00.163.042l.58.007zm3.73-3.221h1.692l.726 1.734.757-1.734h1.687v4.394h-1.367v-2.133l-1.077 2.115-1.052-2.115v2.133h-1.366v-4.394zm7.032-.004h2.65c.145-.004.29.011.431.045.104.023.2.075.276.15a.594.594 0 01.147.284c.033.146.048.296.045.445v1.437c.003.151-.012.302-.045.45a.57.57 0 01-.15.287.55.55 0 01-.282.154 1.725 1.725 0 01-.433.046h-1.26v1.1h-1.38v-4.398zm2.006 2.157a.302.302 0 00.206-.05.296.296 0 00.054-.21v-.483a.288.288 0 00-.054-.207.328.328 0 00-.206-.047h-.627v.997h.627zm3.258 2.241l1.082-4.394h1.939l1.087 4.394H87.47l-.09-.472h-1.106l-.094.472h-1.411zm1.691-1.409h.722l-.356-1.801-.355 1.801h-.01zm4.401-2.985h1.32l1.064 1.97v-1.97h1.349v4.394h-1.326l-1.064-1.923v1.923h-1.344v-4.394zm7.297 0l.533 1.62.473-1.62h1.621l-1.372 2.98v1.414H97.92v-1.414l-1.39-2.98h1.626z" fill="#36454D"/></svg>