<svg width="143" height="75" fill="none" xmlns="http://www.w3.org/2000/svg"><path d="M137.948 55.921c.211.009.421-.032.614-.118.152-.077.287-.185.396-.317.164-.194.254-.44.253-.694a1.013 1.013 0 00-.298-.753c-.21-.238-.536-.357-.971-.357h-6.04c-.196 0-.298.098-.298.298v1.94h6.341l.003.001zm-6.338 7.797h-3.587V51.173c0-.553.298-.83.888-.83h9.511c.832 0 1.518.116 2.058.347.513.211.978.524 1.366.92.334.346.599.753.782 1.198.192.454.29.943.288 1.436a4.252 4.252 0 01-.277 1.534c-.186.48-.515.893-.989 1.236.42.233.761.584.982 1.01.203.408.308.993.308 1.76v2.673c0 .29.004.529.011.71.007.183.025.369.049.554h-3.627a6.748 6.748 0 01-.059-.886V60.16c0-.421-.112-.726-.337-.911-.224-.186-.599-.277-1.128-.277h-6.24v4.746h.001zm-15.227-9.835c-.606 0-1.107.08-1.504.238a3.325 3.325 0 00-1.03.634 3.233 3.233 0 00-.722 1.03 3.04 3.04 0 00-.267 1.266 3.11 3.11 0 00.217 1.156c.141.356.349.682.614.96.305.326.677.583 1.09.753.434.186.971.276 1.605.276h2.812c.634 0 1.167-.09 1.606-.276a3.119 3.119 0 001.703-1.712 3.11 3.11 0 00.217-1.155 3.056 3.056 0 00-.266-1.268 3.318 3.318 0 00-.722-1.03 3.403 3.403 0 00-1.031-.633c-.396-.157-.898-.238-1.504-.238h-2.818v-.001zm0 9.835c-1.205 0-2.244-.196-3.13-.585a6.719 6.719 0 01-2.258-1.594 6.596 6.596 0 01-1.724-4.511 6.56 6.56 0 01.574-2.732 6.759 6.759 0 011.585-2.196 6.363 6.363 0 012.111-1.296c.813-.311 1.761-.467 2.842-.465h2.812c1.083 0 2.03.155 2.842.465a6.37 6.37 0 012.111 1.296 6.723 6.723 0 011.585 2.196 6.85 6.85 0 01.119 5.205 6.497 6.497 0 01-3.526 3.632c-.883.389-1.927.584-3.13.585h-2.813zm-7.428-13.376v3.54h-5.861v9.836h-3.605v-9.835h-5.882v-3.541h15.348zm-19.403 8.35l-2.062-4.788a.69.69 0 00-.253-.317.655.655 0 00-.358-.098.672.672 0 00-.337.087.623.623 0 00-.253.326l-2.04 4.788 5.303.002zm6 4.43a2.88 2.88 0 01.215.596H91.73c-.028-.09-.052-.175-.08-.249-.03-.073-.053-.144-.081-.206l-.712-1.622h-7.921l-.693 1.604c-.029.08-.053.158-.081.238a1.564 1.564 0 00-.06.239h-4.139a2.575 2.575 0 01.214-.596l4.792-10.605c.38-.831.882-1.451 1.504-1.86.622-.41 1.415-.614 2.377-.613.936 0 1.721.203 2.346.612.624.41 1.132 1.03 1.514 1.86l4.83 10.606.014-.003zM63.41 50.935a2.817 2.817 0 01-.214-.595h4.238a3.5 3.5 0 00.14.476l4 9.24a.7.7 0 00.248.316.601.601 0 00.642.01.7.7 0 00.238-.325l3.96-9.241a2.34 2.34 0 00.157-.476h4.179a2.592 2.592 0 01-.214.595L75.992 61.54c-.38.83-.882 1.447-1.504 1.85-.621.403-1.407.604-2.355.602-1.848 0-3.141-.817-3.88-2.452l-4.831-10.605h-.012z" fill="#36454D"/><path d="M60.045 58.692l-2.062-4.788a.69.69 0 00-.253-.317.653.653 0 00-.358-.098.67.67 0 00-.337.088.623.623 0 00-.253.325l-2.04 4.788 5.303.002zm6 4.431c.048.097.09.196.128.297.03.091.063.19.087.298h-4.035c-.028-.09-.053-.175-.08-.248-.029-.074-.053-.144-.081-.207l-.712-1.622H53.43l-.694 1.604c-.028.08-.052.158-.08.239a1.56 1.56 0 00-.06.238h-4.14c.028-.105.056-.203.088-.298.036-.102.078-.201.127-.298l4.791-10.605c.38-.83.882-1.45 1.504-1.86.166-.11.342-.204.526-.28h3.67c.184.078.36.172.529.28.627.41 1.132 1.03 1.514 1.86l4.83 10.605.01-.003zm-18.655.592h-7.01c-1.205 0-2.244-.197-3.13-.585a6.705 6.705 0 01-2.258-1.594 6.776 6.776 0 01-1.146-7.243 6.722 6.722 0 011.585-2.196 6.355 6.355 0 012.108-1.296 7.264 7.264 0 011.97-.43h7.881v3.505h-7.01c-.607 0-1.108.08-1.504.239-.38.146-.729.36-1.03.633a3.243 3.243 0 00-.723 1.03 3.02 3.02 0 00-.266 1.267 3.1 3.1 0 00.217 1.155c.14.357.349.683.613.96.305.327.677.584 1.09.754.435.185.971.276 1.606.276h7.011v3.524h-.004zm-13.8-13.341l-6.323 6.196 6.772 6.728c.065.064.124.133.179.207.052.073.105.143.158.206H29.25a2.487 2.487 0 00-.317-.395l-4.26-4.431-4.493 4.43c-.067.064-.13.134-.19.197-.06.062-.116.133-.169.2H15.11c.048-.074.1-.143.158-.207.052-.06.119-.127.196-.207l6.912-6.728-5.98-5.797a1.618 1.618 0 01-.355-.4h4.992c.094.141.198.275.312.4l3.544 3.6 4.07-4h4.63zm-19.508 0v3.506H3.902c-.21 0-.317.112-.317.336v1.52h10.438v2.571H3.587v1.625c0 .238.105.357.317.357h10.178v3.422H1.884C.629 63.71 0 63.09 0 61.85v-9.715c0-1.03.467-1.619 1.402-1.766h12.682l-.003.004z" fill="#ED3D3D"/><path d="M25.872 69.417h-1.088v.041l1.868 2.813v2.007h.915v-2.007l1.935-2.813v-.041h-1.104l-1.29 2.006-1.236-2.006zm7.957-.092c-1.68 0-2.5 1.282-2.5 2.56 0 1.28.793 2.505 2.5 2.505 1.707 0 2.478-1.254 2.492-2.511.017-1.268-.817-2.554-2.49-2.554h-.002zm0 .834c1.146 0 1.602.914 1.585 1.734-.014.799-.444 1.656-1.585 1.656-1.142 0-1.574-.85-1.595-1.647-.022-.82.452-1.74 1.595-1.74v-.003zm8.16-.728v2.78c0 .834-.43 1.338-1.188 1.338-.757 0-1.255-.465-1.255-1.338v-2.78h-.905v2.78c0 1.465.992 2.172 2.156 2.172 1.223 0 2.103-.735 2.103-2.172v-2.78h-.91zm7.758 4.784l-1.472-1.657c.922-.185 1.227-.858 1.227-1.53 0-.845-.603-1.604-1.75-1.611-.77.007-1.542 0-2.31 0v4.861h.915v-1.622h.883l1.417 1.622h1.09v-.063zm-1.992-3.948c.575 0 .835.39.835.782s-.249.78-.835.78H46.36v-1.558h1.395v-.004zm6.668 4.007h.915v-4.027h1.542v-.834h-3.996v.834h1.543v4.027h-.004zm8.514 0h1l-2.176-4.861H60.76l-2.18 4.861h.992l.416-.913h2.542l.407.913zm-.778-1.768h-1.802l.9-2.07.901 2.07h.001zm7.793-2.484a2.567 2.567 0 00-1.806-.742c-1.712 0-2.569 1.26-2.569 2.627 0 1.275.743 2.476 2.57 2.476.855 0 1.458-.325 1.935-.872v-2.045h-2.083v.819h1.244v.858c-.304.261-.695.4-1.097.389-1.204 0-1.672-.824-1.672-1.622 0-.998.634-1.79 1.672-1.79.457.006.897.179 1.234.487l.568-.58.004-.005zm2.523-.61v4.862h3.415v-.847h-2.5v-4.014h-.915zm6.619 4.862v-4.861h-.908v4.861h.908zm5.696-1.845l-2.38-3.016h-.739v4.861h.915v-3.278l2.555 3.278h.57v-4.861h-.914l-.007 3.016zm7.027.947H89.09v-1.097h2.63v-.855h-2.63V70.3h2.727v-.886h-3.635v4.86h3.635v-.898zm7.971.9v-4.848h-.907v2.047h-2.39V69.43h-.916v4.848h.915v-1.954h2.388v1.954l.91-.002zm6.128-.9h-2.727v-1.097h2.629v-.855h-2.629V70.3h2.727v-.886h-3.637v4.86h3.636v-.898h.001zm6.658.84l-1.473-1.656c.922-.186 1.227-.859 1.227-1.53 0-.846-.603-1.605-1.748-1.612-.771.007-1.543 0-2.31 0v4.861h.914v-1.622h.88l1.416 1.622h1.091v-.063h.003zm-1.991-3.947c.575 0 .834.389.834.781s-.249.781-.834.781h-1.395v-1.56h1.395v-.002zm7.631 3.104h-2.727v-1.096h2.629v-.855h-2.629v-1.124h2.727v-.887h-3.633v4.861h3.635v-.896l-.002-.003zm10.045-29.268h2.234a.65.65 0 01.648.648v3.426h-3.53v-3.427a.648.648 0 01.648-.647zm-31.934-1.468h8.708c.063-1.636.227-3.202.543-4.19.491-1.533 1.627-2.597 2.566-3.246a228.51 228.51 0 01-.028-2.277c0-.721.48-.64.48-.64.053-2.824.186-4.098-1.731-6.508-3.853-4.837-8.36-8.9-12.932-13.296L70.67 23.74l.61 13.836 1.552 3.537-.774 1.345c-.155.518 2.797 5.877-1.142 2.371-.736-.655-1.069-.823-1.255-.707-.186.116.12.802.456 1.629.915 2.265-2.794-1.394-2.99-1.594-.266-.266-.56-.26-.761-.172-.2.087.06.6.207 1.086.147.486.052.855-.267.68-.242-.13-1.644-1.18-2.313-1.686-.48-.36-1.13-.388-.943.372.133.546.253 1.24-.372.844-1.637-1.04-3.36-2.056-5.118-2.91l-.017-1.156c-7.52-3.983-8.844-9.772-2.947-15.552l1.72-.031c-.069-.904-.178-1.993-.223-2.88l1.843-.24 3.5-6.326 2.617-1.12h1.015l5.661-2.775c.168-.728.021-.624.677-.95l11.049-5.576 2.429.813c4.455-2.273 9.384-5.342 14.214-5.916 1.935-.228 2.464 1.52 1.613 2.844l2.691 3.52c.779.08.597.007 1.078.627l8.35 10.644c1.252 1.163 2.363 2.942 2.591 3.453.242.54.655 1.566 1.072 2.788 1.431 4.21 3.457 11.047 3.457 11.047l16.391-.238c3.102-.039 4.329.554 5.012 3.37l.123 6.661s.666.48.723.96l-.007 6.122h-5.476v-9.704a.918.918 0 00-.915-.914h-11.783a.917.917 0 00-.915.914v5.411H93.466a57.269 57.269 0 01-.08-2.038c-.04-1.794 1.387-3.503 2.936-3.503l.003.01z" fill="#36454D"/><path d="M69.096 23.95l.4 15.891c-2.327-1.177-6.309-4.595-7.581-8.13-1.084-3.007.683-5.414 1.987-6.695 1.034-1.02 3.916-1.027 5.195-1.07l-.001.005zM96.844 7.384c4.038 3.034 15.066 11.938 16.613 14.192 1.868 2.722 5.5 15.639 5.5 15.639l-1.174 4.858s-.8-2.182-1.839-4.875v-2.791c0-.245-.19-.502-.4-.502v-3.351a.85.85 0 00.363-.748.849.849 0 10-1.598.445.845.845 0 00.272.303l.052 3.544c-1.756-4.308-2.53-6.424-5.685-9.674-4.936-5.09-14.666-14.91-14.666-14.91l-1.015 1.813L71.69 22.31s-.267-1.32-.467-2.294c7.214-4.255 14.964-9.229 22.045-13.051 1.665-.9 2.153-.648 3.58.423l-.004-.005zM61.71 20.588l1.43-2.27s1.002.466 1.882.921c.88.455 1.07.908 1.07.908l-1.15.854c-.69-.497-1.192-.444-3.232-.413zm42.159-9.607a403.147 403.147 0 00-5.227-4.077l.971-2.471 2.654 3.201c-.07.624-.203.697.144 1.204l1.458 2.143zM93.521 4.835c.07-.48.178-.875.507-1.194 1.336-1.313 4.35-1.425 4.53-1.04a1.043 1.043 0 01-.053.88c-.47.843-1.511 1.96-1.511 1.96s-.747-.714-3.47-.606h-.003zM66.37 15.57l4.621-2.36s.522.413.813.332c.291-.08 10.218-5.338 10.218-5.338s.614 1.149.053 2.081c-.56.932-12.154 7.58-12.154 7.58s-1.202-1.388-3.55-2.295z" fill="#fff"/></svg>