<svg width="15" height="20" fill="none" xmlns="http://www.w3.org/2000/svg"><path d="M6.882 12.339l-.035.085.024.153.079.345.136.454.114.271.152.346.107.204.166.3.198.335.156.215.13.175.006.097-.017.079-.073.028-.22.012-.384-.023-.318-.04-.279-.05-.338-.097-.171-.075-.114-.05-.129-.023-.148.006-.079.034h-.107l-.256-.04-.147-.05-.16-.011-.253-.006-.193-.018h-.177l-.175.012-.119.05-.085.023-.028.04.005.08.081.13.152.21.09.038.143.102.163.09.177.059.254.005.227-.023.193-.044.163-.052.07.035.032.067.058.017.14-.005.177.011.09.029.109-.029.35.044.238.035.39.085.285.084.281.096.248.114.097.07.256.01.136-.034.073-.148.079-.18-.023-.147-.096-.183-.129-.265-.102-.277-.075-.312-.033-.268v-.26L8.471 14l.035-.154-.04-.13-.085-.068-.17-.125-.119-.085-.023-.163-.056-.175-.106-.172-.113-.146-.142-.136-.181-.137-.204-.152-.108-.052-.108-.033-.09.016-.079.052v0z" fill="#FC0012" stroke="#FC0012" stroke-width=".022" stroke-miterlimit="2.613"/><path d="M6.224.867l-.002.075-.078.018-.102-.014-.154.033-.116.036-.092.006-.029.04.033.056.07.016.064-.02.076-.032.077-.004.163.008.125.038.148.037.218.098.019.046-.023.037-.102.036-.062.029-.11.073-.167.089-.204.144-.232.106-.185.121-.167.073-.158.039-.139.003-.19.004-.073.02-.043.088-.032.096-.037.066-.092.138-.089.154-.06.075-.005.087.005.12v.13l.08.07.069.037.082-.005.135-.037.152-.046.206-.083.083.004.019.052-.02.05-.069.037-.21.078-.157.047-.03.052-.007.055.052.047.11.013h.088l.112-.004.121-.029.175-.092.116-.023.098-.02.075.025.11-.005.107.013.089.052.138.014.181.055.098.014.152-.027.195.013.084.033.046.079-.01.102-.022.125-.046.144-.066.181-.065.198-.07.181-.046.125-.157.246-.19.24-.172.237-.217.218-.2.169-.128.135-.067.22-.094.112-.12.085-.144.12-.22.134-.187.094-.12.137-.084.11-.085.051-.12.06-.076-.017-.152-.07-.17-.11-.247-.109-.28-.146-.144-.11-.179-.144-.196-.162-.211-.076-.187-.033-.238.05-.17.094-.146.102-.075.187-.052.144-.06.221-.067.135-.067.206-.01.246-.06.144-.067.229-.06.229-.109.214-.06.211-.034.264-.095.221-.06.127-.007.127-.008.214v.373L1 9.84l.025.134-.01.221.077.178.06.042.11-.035.101-.092.147-.177.127-.204.05-.17-.033-.136-.042-.17-.052-.203-.05-.214-.027-.161V8.7l.034-.172.085-.261.085-.137.077-.069.06-.092.109-.01.052-.033.077-.069.084-.075.077-.102.033-.12.027-.101.008-.137.025-.119.06-.075.059-.017.077.025.11.06.119.136.127.187.144.169.154.136.137.11.134.06.042.084-.042.043-.145-.033-.203-.017-.264-.052-.254-.05-.306-.01-.179.01-.136.084-.144.127-.12.204-.092.231-.01.17.052.305.12.39.06.307.074.298.052.21.025.196.067.221.052.339.05.119.13.102.119.119.134.204.094.238.145.212.211.204.154.094.102.008.085-.025.052-.12.057-.101.035-.145v-.33l-.042-.095c-.008 0-.008-.06-.008-.067l-.017-.06-.07-.101-.127-.127-.236-.102-.087-.027-.015-.145.007-.092-.161-.187-.102-.238-.085-.339-.07-.314-.116-.246-.043-.298.067-.179.12-.067h.092l.137.12.196.118.204.075.492.239.239.137v.127l.22.126.28.095h.587l-.043.11-.024.059.075.142.144.214.23.229.28.306.238.211.447.343.361.194.271.144.349.237.321.229.277.235.289.39.013.164.065.169.177.127.162.063.1-.013.08-.077.113-.121.027-.164.134-.232.029-.18.021-.198.014-.155.044-.098.09-.045h.087l.006.066-.064.069-.055.15-.043.092v.114l-.015.24-.035.122-.105.182-.143.235-.142.256-.085.333-.042.348.042.389.056.227.135.298.171.354.135.277.184.29.22.27.042.092v.064l-.03.078-.076.127-.121.17-.248.32-.249.268-.227.249-.098.057-.2.077-.12.114-.063.129-.142.177-.161.176-.199.206-.12.212-.072.213-.042.177.007.143.085.09h.312l.134-.013.141-.085.185-.084.028-.072h.064l.098-.042.092-.086.05-.339-.029-.071-.013-.072.05.014.055.015.058-.042.093-.058.098-.127.121-.171.063-.156.014-.127.079-.058.113-.063.093-.056.077-.156.163-.17.306-.284.233-.155.235-.13.055-.055.021-.058.05-.063-.035-.085-.007-.156-.03-.146-.037-.084-.081-.139-.129-.162-.063-.12-.014-.128v-.17l.029-.099.077-.263.078-.127.085-.05.156-.099.185-.157.248-.212.17-.177.17-.198.177-.2.127-.225.106-.193.1-.219.071-.242.022-.225.013-.171.058-.056.063-.016.056.037.05.12.014.163.023.155-.016.106-.013.164v.348l.042.275.05.072.042-.006.021-.05-.028-.114v-.192l.057-.162.027-.235.03-.163.036-.077h.042l.035.034.034.135.03.13-.014.203-.043.277-.128.27-.12.255-.07.22-.014.134.013.156.05.15h.092l.049-.065-.028-.072-.02-.127.084-.113.098-.135.065-.127.156-.248.127-.227.056-.249.05-.327v-.325l-.063-.227-.127-.177-.016-.084.058-.03.071.035.093.114.113.206.048.24.03.32.07.22.008.006.098.22.063.023.03-.058-.008-.034-.049-.164-.007-.163.007-.24.043-.27v-.135l-.016-.113-.113-.227-.098-.164.034-.063.135-.03.185-.084.198-.106.177-.155.227-.306.129-.254.106-.242.034-.389.008-.348-.056-.431-.065-.312-.056-.32-.035-.332.027-.212.058-.263.12-.262.17-.27.064-.17.013-.085-.055-.077-.079-.037v.122l-.063.07-.114.17-.063.042-.177.214-.071.113-.085.191-.092.015-.085-.05-.05-.227.014-.261.057-.243.14-.227.285-.425.17-.346.021-.243-.027-.077-.05.05-.084.212-.13.213-.19.156-.22.212-.326.383-.063-.006-.021-.065-.008-.156.02-.29.101-.326.177-.361.235-.29.29-.25.027-.057-.035-.027-.148.077-.121.08-.206.176-.255.227-.183.248-.18.325-.097.264-.03.262-.013.354.085.369.085.32.163.502.106.602.063.46v.248l-.027.261-.042.214-.079.24-.298.376-.304.276-.39.22-.376.02-.05-.182-.134-.264-.185-.254-.121-.15-.162-.219-.348-.332-.354-.29-.156-.122-.488-.331-.703-.589-.383-.475-.419-.687-.113-.411.028-.256.058-.05.148.1.235.113.19-.007.22.1.235.142.12.098.157.108.161.021.037-.071-.043-.008-.05.021-.078-.05-.07-.105-.1-.164-.192-.177-.19-.071-.106-.021.02-.056h.149l.171.056.248.163.114.05.042-.058-.071-.098-.193-.17-.298-.157-.36-.14-.07-.058.07-.05.162.08.298.05.32.126.169.085.298.042.214-.029.119-.056.163-.1.072-.069.007-.05-.066.006-.063.065-.212.07-.184.028-.156-.021-.15-.12-.135-.157-.161-.12-.243-.05-.233-.078-.1-.064.008-.055.092.013h.206l.206-.013h.211l.114-.022.092.077.149.037h.12l.056-.042-.098-.03-.12-.078-.128-.12-.206-.107-.169-.021-.156-.022-.057-.034.113-.064H9.6l.142.043.14.07.228.099.227.008.12-.058.036-.077-.093-.042-.19-.008-.164-.056-.142-.121-.156-.079-.206-.034-.177-.064-.076-.1.013-.05.114.023.142.042.085.064.12.013.014-.063-.127-.1-.037-.09.171.026.162.085.206.023.079.148.211.127.012-.002.046-.02.056-.034-.027-.042-.08.006-.07-.098-.143-.22-.248-.22-.254-.114-.071-.085-.156-.185-.142-.076-.021-.072.063-.042.15.035.296.084.143.05.092.13.148.076h.114l.15.042.163-.029.064-.055-.093-.08-.134-.034-.156-.021-.093-.079-.12-.177-.03-.113-.155-.14-.17-.109-.192-.119-.212-.198-.013-.058h.048l.277.22.283.163.15.113.19.177.171.093.099.029.05-.08-.072-.026-.148-.135-.042-.15-.156-.17-.129-.107-.063-.162-.22-.327-.298-.261-.013-.085.106.014.15.077.24.1.248.013.185.087.198.034.17-.05-.014-.071-.193-.042-.169-.077-.34-.164-.185-.1-.098-.119.035-.042.05.034.076.03.1.007h.164l.14-.016.214-.013.164.063.169.122.071.02.008-.063-.058-.057-.17-.156-.263-.135-.19-.021-.362-.021-.084-.1-.185-.185-.206-.14-.077-.072.064-.05.098.043.177.092.2.071.27.064h.232l.193.213.155.093.056-.058-.211-.312-.333-.24-.277-.065-.235-.247-.206-.12-.283-.072.156-.135.277-.092.206-.064.048-.063-.027-.05-.114-.029-.107-.021-.8.015-.143-.157-.161-.106-.206-.093-.27-.042h-.232L7.842.757 7.623.523l-.264-.24-.161.269-.008.084.077.1.008.085-.056.05-.179.013-.325-.092-.32-.07-.148.007-.242.05.029.084.134-.006.056.01v0z" fill="#FC0012" stroke="#FC0012" stroke-width=".022" stroke-miterlimit="2.613"/><path d="M7.084.778L7.07.615 6.836.332 6.765.311l-.05.071.008.085-.08.071-.007.098.092.05.13.092h.226v0z" fill="#FC0012" stroke="#FC0012" stroke-width=".022" stroke-miterlimit="2.613"/><path d="M6.63.594l.006-.013" stroke="#FC0012" stroke-width=".022" stroke-miterlimit="2.613"/><path d="M9.06 9.732l-.312-.404-.27-.396-.2-.312-.076-.214-.042-.205-.05-.14-.08-.037-.077.02-.026.135.056.235.134.34.17.276.192.242.211.212.127.12.243.128v0zM4.814 2.497L4.74 2.6l-.03.106.013.075.036.023.106-.023.079-.044L5 2.681l.03-.104-.03-.05-.068-.055-.055-.006-.062.03v0zm2.02-.28h.087l.08-.03.006-.08-.03-.093-.037-.087-.073-.05-.095-.017-.129.006-.08.067-.037.075.025.067.087.05.092.05.104.043v0zm6.935 7.538l-.05.05.01.09.015.162.018.171.011.148-.008.17-.007.188-.035.17-.04.148-.07.144-.09.148-.092.145-.099.132-.09.12-.05.09-.037.083.008.061.047.021.086-.02.17-.163.147-.173.099-.138.086-.162.058-.148.05-.17.036-.197.004-.09v-.362l-.029-.18-.04-.186-.05-.156-.025-.079-.033-.017v0zm-7.468 1.164l.098.11.323.28.18.16.159.145.129.12.025.04.017.03-.05-.004-.129-.08-.217-.145-.337-.227-.136-.093-.145-.113-.157-.144-.116-.09-.138-.135-.09-.094-.057-.087-.02-.104.003-.096.037-.037.063.004.1.06.108.104.079.096.084.084.083.102.104.114v0zm-.729-4.361l.004-.052.034-.039.122-.05.252-.079.252-.03h.154l.127.027.119.06.094.092.006.051-.012.037-.04.008-.062-.008-.094-.027-.088-.027-.11-.011h-.137l-.115-.002-.102.01-.114.018-.09.026-.088.019-.058.004-.04-.006-.014-.021v0zM8.804 10.9l-.037.102-.015.08-.03.147-.01.117.027.033.055.007.029-.023.013-.061.043-.089.042-.048.046-.042.03-.067-.009-.114-.04-.06-.023-.021h-.054l-.04.008-.027.03zm.079 3.503h-.037l-.029-.087-.002-.098.021-.134.049-.185.079-.114.07-.088.064-.008.017.058-.038.123-.054.15-.027.073-.05.114-.038.132-.012.039-.013.025v0zm2.48-1.697l-.046.058.007.092.08.112.013.12.018.036.037.01.04-.024.012-.054.02-.06.007-.063v-.085l-.012-.063-.044-.056-.038-.034-.046-.004-.048.015v0zm-3.538 6.412l-.08.079-.028.058-.01.05.008.04.025.02h.023l.054-.012.056-.037.034-.052.03-.055.016-.072-.005-.04-.021-.017-.043.002-.06.036v0zm.579-.843l-.066.04-.032.041-.004.035.019.035.033.01.044-.016.036-.021.03-.04.017-.043-.006-.035-.023-.013-.048.007zm1.085-1.079l-.266.268-.219.236-.156.173-.008.049.018.028.036.002.056-.036.1-.09.127-.116.137-.143.129-.124.113-.133.085-.125.023-.056-.023-.029-.027-.006-.075.048-.05.054v0zm.642-.39l-.038.04-.012.033.006.032.027.016h.023l.035-.039.038-.034.017-.027-.001-.021-.02-.01-.042-.002-.033.012v0zM9.2 15.342h-.03l-.014.017-.004.057v.097l.02.104.032.075.07.113.046.068.024.011.014-.002.007-.017-.017-.089-.017-.044-.002-.032-.002-.093-.02-.115-.032-.087-.042-.05-.033-.013v0zm-4.396-.13l-.069.014-.06.02-.017.024-.002.035.031.039.021.017.046.013.052-.001.025-.008.031-.037.017-.04.008-.033-.006-.029-.025-.015-.052.002v0zm1.97.22l-.169-.054-.025.01-.006.04.02.037.128.042.181.056.23.057.1.008.103.006.1.017.114.02.065-.004.021-.027v-.037l-.017-.023-.06-.015-.106-.023-.13-.01-.139-.021-.16-.017-.096-.014-.079-.017-.075-.03v0zm1.553.056l-.052.038-.01.037.01.033.03.013.056-.013.039-.031.02-.039v-.03l-.012-.018h-.043l-.038.01v0zM3.14 11.825l-.055-.012-.024.006-.01.035.012.06.03.026.04.008.032-.025.006-.038-.006-.033-.025-.027v0zm-1.13-2.41l-.022.15.004.152.023.13.044.139.044.088.031.068.02.036.024.021h.014l.011-.017.01-.052-.027-.179-.02-.11-.043-.124-.037-.118-.002-.092-.021-.09-.021-.02H2.02l-.012.018v0zm1.607-.187l.01-.03-.008-.04-.046-.042-.088-.04-.123-.054-.106-.052-.116-.029-.067-.025-.062.002.047.035.134.08.12.09.12.074.053.023.075.012.057-.004v0zm-1.687-.96l-.057.1-.002.07.023.018.034-.013.035-.048.023-.054.017-.04v-.058l-.027-.017-.028.013-.018.029v0zm5.508-4.165l-.067.011-.089.085-.171.273-.18.35-.103.202-.113.235-.139.214-.034.08.005.03.037.001.113-.044.164-.171.215-.302.135-.25.121-.2.09-.237.041-.148.004-.083-.029-.046v0zm-3.201 3.24l.038.015.012.046-.029.166-.08.227-.072.217-.125.156-.064.048-.067.025-.038-.027-.004-.05.054-.058.055-.092.072-.156.042-.148.039-.146.074-.14.05-.072.043-.011v0zM1.94 6.862l-.08.14-.037.192-.01.103v.074l.017.039.05-.014.093-.142.051-.17.04-.15.003-.105-.023-.035-.062.018-.042.05v0zm1.02.29l.005.042.023.03.052.051.056.046.065.037.047.029.019-.002.01-.017-.002-.033-.025-.037-.04-.048-.068-.04-.043-.039-.036-.032-.033-.006-.019-.002-.012.021v0zm-.576-.892l-.096.011-.046.033-.016.052.014.038.054.021.088-.01.093-.034.027-.044-.002-.033-.031-.029-.035-.01-.05.005zm4.804.875l.063.017.02.035.007.077.01.08-.02.058-.04.023-.098.002-.065-.015-.037-.048-.03-.039v-.061l.048-.062.073-.058.069-.01zM5.522 2.17l.088-.075.164-.078.164-.074.155-.073.071-.034.054-.008.045.01.034.056-.023.04-.044.011-.054.014-.06.05-.132.08-.183.05-.114.03-.11.007-.055-.006zm-.327.328l-.029.046-.004.034.025.03.031.015.038-.002.02-.01.013-.044-.004-.05-.01-.029-.026-.006h-.031l-.023.016v0zm.377.336l-.027.002-.021.023-.004.039.012.03.02.012h.037l.03-.013.005-.03-.01-.034-.013-.021-.029-.008v0zm1.123.168l.193-.137.117-.073.071-.044h.025l.004.052-.048.038-.023.079-.06.092-.107.052-.11.025H6.66l-.017-.032.025-.035.028-.017v0zm.649.067l.063-.08.073-.07.066-.044.048-.004.033.02v.06l-.018.066-.073.07-.086.053-.089.023-.042-.013-.006-.035.03-.046v0zm.011.338l.025-.044.06-.027.104-.05.12-.073.055-.04.085-.04.053.013v.058l-.02.052-.076.088-.104.05-.104.042-.107.002h-.068l-.023-.03zm-.207-1.852l-.062.021-.014.042.026.047.067-.004.056-.021.04-.047-.017-.038-.054-.02-.042.02v0zm1.085-.352l-.035-.025.025-.046.096-.01.052.017.04.022.002.034-.034.015-.054.004-.052-.004-.04-.007v0zm.157.22l.056-.003.043.01.02.013-.007.021-.03.037-.043.004-.05-.008-.029-.013-.021-.025.025-.022.036-.015v0zm-.011.988l.102-.042.088-.046.093-.052.07-.025.043-.012.042-.064-.03-.028-.06.003-.071.016-.08.03-.055.005-.008-.043.008-.08-.032-.033h-.047l-.03.038-.03.039-.046.05-.032.082v.074l.015.04-.004.042.03.01.034-.004v0zM8.34 6.373l.05-.004.043.035.001.029-.013.017-.039.011-.05-.003-.032-.033.008-.029.032-.023v0zm.08-.112h.059l.038-.042-.004-.03-.038-.026h-.04l-.031.01-.014.029v.042l.03.018v0zm.065-.363l.042-.008h.04l.025.021.006.033-.013.027-.039.02-.04.005-.042-.01-.014-.028v-.035l.035-.025v0zm.044-.158l.058.002.051-.015.021-.033-.015-.04-.042-.022-.05.008-.046.021-.01.035.002.023.03.021v0zm.115-.408l.06-.017h.046l.021.025-.008.044-.028.039-.027.034-.054.012H8.6l-.046-.023-.004-.037.033-.034.024-.03.037-.013v0zm.06-.304l.06-.007.053.011.023.033v.033l-.025.04-.044.008-.046.011-.058-.002-.025-.029.004-.042.02-.029.038-.027v0zm.054-.102h.057l.047-.015.06-.025.007-.05-.021-.04-.05-.018-.052.002-.037.016-.033.017-.038.034-.008.037.016.029.029.01.023.003zM1.292 9.811l.05.006.013.05-.035.042-.057-.014-.03-.055.059-.03v0zm7.425-5.242l.093-.049.044-.01.054.007.02.019v.021l-.02.035-.037.03-.054.02-.063.005-.052-.007-.013-.031.007-.025.021-.015v0zm.083-.154l.067-.03.027-.03.014-.03v-.03l-.012-.017-.029-.002-.04.004-.04.01-.035.02-.017.022-.006.036.007.033.031.01.033.004v0zm.015-.266l.058-.021.043-.029.01-.025.005-.042-.01-.027-.027-.008-.04.002-.048.01-.033.023-.023.023-.004.038.006.031.03.017.033.008v0zm0-.687l.049-.002.028.01.008.025-.015.025-.025.027-.04.01h-.043l-.027-.025v-.03l.025-.024.04-.016v0zm.004.414l.06-.029.046-.04.004-.06-.004-.036-.03-.018-.035-.01-.029.002-.016.02-.007.027-.008.034-.017.012H8.75l-.01.02.004.034.025.03.025.01.025.004v0zm.008-.621l.042-.03.045.003.026.032-.005.033-.021.029-.035.013-.033.008-.029.004-.038-.004-.01-.023.01-.03.023-.022.025-.013v0zm.008-.154l.034-.014.037-.032.002-.031-.004-.033-.023-.013-.037.005-.023.014-.025.027-.002.032v.031l.018.01.023.004v0zm-.083-.308l.023-.012.03-.002.026.016.005.023-.009.034-.025.02-.023.013-.03.004-.026-.015-.006-.027.012-.023.023-.031v0z" fill="#fff" stroke="#FC0012" stroke-width=".022" stroke-miterlimit="2.613"/></svg>