<svg width="25" height="20" fill="none" xmlns="http://www.w3.org/2000/svg"><mask id="a" fill="#fff"><path d="M12.048 13.15c-.26 0-.52.015-.726.042-.977.132-1.343.386-1.687 1.034-.223.418-.67 1.685-1.029 3.3-.7-.025-1.4-.06-2.1-.104-.243-2.268-.805-11.707-.82-14.946.395-.026.815-.06 1.278-.08.28 1.497 1.214 6.714 1.978 8.354.338.731.93.98 1.654 1.035.968.05 1.938.05 2.905 0 .723-.055 1.314-.304 1.653-1.035.762-1.64 1.695-6.855 1.977-8.354.463.021.885.054 1.28.08-.016 3.24-.576 12.678-.824 14.946-.625.041-1.348.076-2.1.104-.357-1.617-.805-2.882-1.028-3.3-.342-.648-.709-.902-1.687-1.034a5.692 5.692 0 00-.724-.041z"/></mask><path d="M12.048 13.15c-.26 0-.52.015-.726.042-.977.132-1.343.386-1.687 1.034-.223.418-.67 1.685-1.029 3.3-.7-.025-1.4-.06-2.1-.104-.243-2.268-.805-11.707-.82-14.946.395-.026.815-.06 1.278-.08.28 1.497 1.214 6.714 1.978 8.354.338.731.93.98 1.654 1.035.968.05 1.938.05 2.905 0 .723-.055 1.314-.304 1.653-1.035.762-1.64 1.695-6.855 1.977-8.354.463.021.885.054 1.28.08-.016 3.24-.576 12.678-.824 14.946-.625.041-1.348.076-2.1.104-.357-1.617-.805-2.882-1.028-3.3-.342-.648-.709-.902-1.687-1.034a5.692 5.692 0 00-.724-.041z" fill="#5F5F5F"/><path d="M12.048 13.15v54.297h.179l.178-.001-.357-54.295zm-.726.042L4.087-40.619h-.004l7.239 53.811zm-1.687 1.034l47.913 25.54.024-.044.024-.045L9.635 14.226zm-1.029 3.3L6.71 71.788l45.135 1.579 9.772-44.093-53.01-11.748zm-2.1-.104l-53.985 5.802 4.887 45.471 45.64 2.913 3.458-54.186zm-.82-14.946l-3.55-54.18-50.991 3.34.245 51.1 54.295-.26zm1.278-.08l53.37-9.983-8.64-46.194-46.956 1.927 2.226 54.25zm1.978 8.354l49.264-22.827-.023-.048-.022-.049L8.94 10.75zm1.654 1.035L6.46 65.924l.663.05.663.035 2.809-54.224zm2.905 0L16.31 66.01l.668-.035.668-.051L13.5 11.785zm1.653-1.035l-49.24-22.881-.012.027-.013.027L15.154 10.75zm1.977-8.354l2.429-54.241-47.082-2.108-8.708 46.317L17.131 2.396zm1.28.08l54.294.26.246-51.085-50.976-3.354L18.41 2.476zm-.824 14.946l3.592 54.177 45.45-3.013 4.935-45.281-53.977-5.883zm-2.1.104l-53.012 11.736 9.782 44.186 45.226-1.663-1.996-54.26zm-1.028-3.3l-48.014 25.351.05.095.05.095L14.46 14.226zm-1.687-1.034l7.226-53.813-.335-.045-.336-.04-6.555 53.898zm-.724-54.337c-1.829 0-4.641.08-7.961.526l14.47 107.623a49.834 49.834 0 01-3.854.368c-.963.054-1.85.075-2.655.075V-41.145zm-7.965.526c-3.24.436-12.67 1.852-22.688 8.135-11.309 7.092-17.1 16.32-19.721 21.259l95.922 50.902c-2.277 4.29-7.713 13.068-18.509 19.838-9.505 5.96-18.263 7.184-20.527 7.489L4.083-40.62zm-42.362 29.304c-3.743 7.023-5.452 14.06-6.124 17.092L61.616 29.274a31.01 31.01 0 01-.78 2.853 41.57 41.57 0 01-.805 2.252 47.551 47.551 0 01-.8 1.928c-.315.715-.878 1.95-1.683 3.46l-95.827-51.082zm48.783-25.422c-.18-.006-.36-.015-.54-.027L3.049 71.608c1.219.077 2.439.138 3.66.18l3.795-108.525zM60.491 11.62c.047.439.057.608.032.29a87.706 87.706 0 01-.08-1.089 291.807 291.807 0 01-.41-7.275c-.054-1.248-.054-1.597-.052-1.33l-108.591.52c.025 5.142.695 16.431 1.131 20.488L60.491 11.62zM9.234 56.656l.333-.023.125-.008.1-.007.04-.003.033-.002.048-.004.024-.001-.067.004a24.146 24.146 0 01-.679.035l-4.453-108.5a79.602 79.602 0 00-2.555.146l-.047.003 7.098 108.36zm-55.64-44.276c.068.362.535 2.945 1.09 5.527.02.098 1.563 8.306 5.038 15.767l98.439-45.848c.64 1.375 1.1 2.522 1.394 3.299.305.803.533 1.47.688 1.942.3.914.48 1.572.55 1.83.132.497.152.632.067.235-.174-.81-.313-1.584-.526-2.72L-46.405 12.38zm6.083 21.197c4.597 9.92 12.316 18.97 22.99 25.075 9.724 5.562 18.791 6.89 23.794 7.272l8.27-108.277c4.278.327 12.688 1.502 21.851 6.743a52.653 52.653 0 0121.624 23.533l-98.529 45.654zM7.787 66.01c2.84.147 5.684.147 8.523 0L10.693-42.438a26.195 26.195 0 012.711 0L7.787 66.01zm9.859-.086c5.014-.384 14.08-1.716 23.799-7.28 10.662-6.103 18.377-15.147 22.973-25.066L-34.11-12.077A52.653 52.653 0 01-12.502-35.6c9.159-5.242 17.567-6.422 21.859-6.751l8.289 108.275zm46.747-32.291c3.457-7.44 4.996-15.624 5.018-15.723.55-2.563 1.022-5.165 1.081-5.48L-36.23-7.636c-.222 1.184-.358 1.938-.536 2.768-.085.4-.067.269.065-.223.069-.255.248-.91.545-1.819.154-.47.38-1.134.684-1.934.294-.774.75-1.917 1.387-3.287l98.478 45.763zm-49.69 23.006l-.362-.018-.123-.008.04.003.115.008.194.013.279.019 7.128-108.358-.129-.009-.47-.031a85.43 85.43 0 00-1.815-.102L14.702 56.638zM-35.886 2.215c.001-.262.001.09-.052 1.336a270.32 270.32 0 01-.186 3.689 284.426 284.426 0 01-.223 3.567c-.035.492-.062.848-.08 1.07-.025.314-.013.125.037-.338L71.564 23.305c.45-4.138 1.117-15.452 1.141-20.568l-108.59-.522zm49.88-38.97c.06-.004.04-.002-.067.003-.102.005-.248.012-.436.018l3.991 108.519c1.085-.04 2.372-.098 3.696-.186L13.996-36.755zM68.5 5.789c-.678-3.06-2.387-10.087-6.127-17.104l-95.828 51.082a51.384 51.384 0 01-1.678-3.45 47.566 47.566 0 01-.8-1.927 40.873 40.873 0 01-.806-2.258c-.344-1.062-.593-2-.786-2.87L68.5 5.789zm-6.027-16.914C59.847-16.1 54.046-25.37 42.7-32.484c-10.032-6.291-19.476-7.703-22.702-8.137L5.546 67.005c-2.248-.301-11.02-1.52-20.538-7.49-10.833-6.793-16.279-15.612-18.563-19.938l96.028-50.702zM19.327-40.706a59.998 59.998 0 00-7.637-.438l.716 108.59a48.614 48.614 0 01-6.19-.355L19.328-40.706z" fill="#fff" mask="url(#a)"/><mask id="b" fill="#fff"><path d="M12.048 19.978c-1.948 0-6.4-.12-7.866-.394-1.558-.292-2.609-1.186-3.124-2.655-.44-1.253-.765-3.58-.966-6.915-.124-2.09-.123-3.967.005-5.575C.318 1.703 1.582.613 4.225.314 5.99.117 9.939.02 12.048.02c2.108 0 6.056.096 7.82.294 2.642.3 3.907 1.39 4.127 4.126.13 1.608.131 3.485.007 5.574-.2 3.336-.524 5.663-.965 6.916-.517 1.47-1.566 2.361-3.127 2.655-1.46.273-5.914.392-7.862.392zm7.641-1.583a2.93 2.93 0 002.207-1.867c.277-.79.659-2.572.9-6.589.122-2.034.12-3.852-.006-5.405-.149-1.856-1.085-2.796-3.058-3.02-1.718-.193-5.601-.283-7.684-.283s-5.967.09-7.687.286c-1.97.223-2.907 1.163-3.057 3.02-.125 1.551-.125 3.37-.004 5.404.24 4.017.622 5.797.899 6.589a2.933 2.933 0 002.206 1.867c1.232.23 5.282.373 7.643.373 2.36 0 6.409-.143 7.641-.375"/></mask><path d="M12.048 19.978c-1.948 0-6.4-.12-7.866-.394-1.558-.292-2.609-1.186-3.124-2.655-.44-1.253-.765-3.58-.966-6.915-.124-2.09-.123-3.967.005-5.575C.318 1.703 1.582.613 4.225.314 5.99.117 9.939.02 12.048.02c2.108 0 6.056.096 7.82.294 2.642.3 3.907 1.39 4.127 4.126.13 1.608.131 3.485.007 5.574-.2 3.336-.524 5.663-.965 6.916-.517 1.47-1.566 2.361-3.127 2.655-1.46.273-5.914.392-7.862.392zm7.641-1.583a2.93 2.93 0 002.207-1.867c.277-.79.659-2.572.9-6.589.122-2.034.12-3.852-.006-5.405-.149-1.856-1.085-2.796-3.058-3.02-1.718-.193-5.601-.283-7.684-.283s-5.967.09-7.687.286c-1.97.223-2.907 1.163-3.057 3.02-.125 1.551-.125 3.37-.004 5.404.24 4.017.622 5.797.899 6.589a2.933 2.933 0 002.206 1.867c1.232.23 5.282.373 7.643.373 2.36 0 6.409-.143 7.641-.375" fill="#fff"/><path d="M4.182 19.584L-5.828 72.95l.003.001L4.182 19.584zM1.058 16.93L52.297-1.034l-.01-.026-.009-.026-51.22 18.015zm-.966-6.915l-54.2 3.227.001.015.001.015L.092 10.014zM.097 4.44L-54.022.063l-.003.035-.003.035L.097 4.439zM4.225.314l-6.02-53.962-.042.005-.043.005L4.225.314zm15.642.001l6.105-53.951-.011-.002h-.01L19.866.314zm4.128 4.126l-54.122 4.342v.011l.002.012 54.12-4.365zm.007 5.574l54.2 3.23v-.002l-54.2-3.228zm-.965 6.916l51.22 18.017v-.002l-51.22-18.015zm-3.127 2.655l9.98 53.37.033-.005.033-.007L19.91 19.586zm1.986-3.058l50.951 18.763.151-.41.144-.411-51.245-17.942zm.9-6.589L-31.403 6.67l-.001.014v.014l54.198 3.241zm-.006-5.405l-54.123 4.334.003.033.003.033 54.117-4.4zm-3.058-3.02l6.1-53.951-.01-.002h-.01l-6.08 53.954zm-15.37.003l6.104 53.951.011-.001.011-.001-6.127-53.95zm-3.058 3.02L-52.815.151l-.002.023-.002.022 54.123 4.34zM1.3 9.94l-54.2 3.223v.01l.001.009 54.2-3.242zm.9 6.59l-51.258 17.907.018.051.018.051L2.199 16.53zm2.206 1.867l-10.1 53.348.072.013.071.014 9.957-53.375zm7.643-52.715l-.175-.001a55.514 55.514 0 01-1.678-.046c-.406-.017-.494-.026-.315-.012.094.007.448.034.982.094a47.368 47.368 0 013.326.502L-5.825 72.95c5.267.987 10.78 1.153 11.498 1.183 2.231.093 4.588.141 6.375.141V-34.318zm2.143.537A50.186 50.186 0 0137.396-22.67a50.307 50.307 0 0114.9 21.636L-50.18 34.893c7.076 20.182 24.119 34.261 44.352 38.056l20.02-106.73zM52.278-1.086c.88 2.5 1.344 4.478 1.564 5.509a33.26 33.26 0 01.417 2.317c.1.712.079.807.031.016l-108.396 6.515c.182 3.024.683 12.402 3.944 21.673l102.44-36.03zm2.014 7.872c-.005-.08.004.028.004.31 0 .271-.01.836-.074 1.65L-54.028.133c-.376 4.725-.312 9.205-.08 13.108l108.4-6.455zm-.075 2.03c-.47 5.797-2.826 19.685-15.208 31.666-11.754 11.373-24.742 13.338-28.68 13.783L-1.88-53.638c-6.58.744-21.521 3.404-34.623 16.081C-50.233-24.272-53.332-8.471-54.022.063L54.217 8.815zM10.244 54.274a32.69 32.69 0 01-1.13.108l-.17.012c.116-.006.402-.02.849-.035a87.447 87.447 0 012.255-.043v-108.59c-2.142 0-8.777.061-13.842.626L10.244 54.275zm1.804.042a87.346 87.346 0 012.246.043c.444.015.725.028.834.035.05.002-.02-.001-.185-.014-.137-.01-.554-.044-1.159-.112L25.95-53.639c-5.104-.575-11.78-.635-13.902-.635V54.317zm1.715-.05c-3.934-.445-16.92-2.408-28.673-13.777-12.391-11.986-14.75-25.886-15.217-31.707L78.117.1c-.687-8.557-3.788-24.37-17.528-37.66-13.101-12.674-28.04-15.331-34.617-16.075L13.762 54.267zm-43.888-45.46a21.565 21.565 0 01-.077-1.696c0-.29.009-.403.004-.322l108.4 6.455c.232-3.898.297-8.403-.087-13.166l-108.24 8.729zm-.073-2.02c-.047.784-.067.683.033-.034.053-.382.177-1.2.417-2.324a45.054 45.054 0 011.565-5.512l102.44 36.03c3.264-9.279 3.763-18.659 3.944-21.701l-108.399-6.46zm2.016-7.872a50.303 50.303 0 0114.899-21.599A50.174 50.174 0 019.865-33.773l20.09 106.717c20.181-3.799 37.209-17.833 44.302-37.996L-28.183-1.086zm38.113-32.7a47.517 47.517 0 013.324-.499c.532-.059.883-.086.976-.093.176-.013.085-.004-.322.013a62.007 62.007 0 01-1.686.046l-.175.001V74.274c1.786 0 4.14-.048 6.367-.14.71-.03 6.22-.195 11.475-1.177L9.93-33.785zm19.803 105.54A57.226 57.226 0 0056.101 59.21l-70.124-82.915A51.366 51.366 0 019.644-34.964l20.09 106.718zM56.101 59.21a57.225 57.225 0 0016.746-23.919L-29.054-2.235a51.366 51.366 0 0115.031-21.47L56.101 59.21zm17.041-24.74c2.87-8.198 3.549-16.21 3.852-21.289L-31.404 6.698c-.052.872-.069.586.092-.466.085-.553.243-1.48.519-2.679a46.86 46.86 0 011.444-4.966L73.142 34.47zm3.85-21.261c.233-3.857.301-8.331-.085-13.074L-31.327 8.934a22.982 22.982 0 01-.083-1.826c0-.331.01-.483.008-.438l108.395 6.539zM76.913.2c-.724-9.055-4.089-23.805-16.741-36.348-12.277-12.17-26.425-15.396-34.339-16.29l-12.2 107.904c-5.941-.672-18.635-3.315-29.913-14.495A51.147 51.147 0 01-31.333 8.868L76.913.201zm-51.1-52.64c-5.09-.574-11.746-.626-13.764-.626V55.527a86.375 86.375 0 012.228.04c.434.015.701.028.796.033a33.963 33.963 0 01-1.419-.131L25.812-52.44zm-13.764-.626c-2.007 0-8.692.05-13.814.633L10.488 55.465c-.632.072-1.072.106-1.222.118-.18.014-.263.018-.224.016.09-.005.353-.018.786-.032a86.575 86.575 0 012.22-.04V-53.066zm-13.792.63c-7.925.897-22.063 4.127-34.332 16.29C-48.712-23.62-52.082-8.892-52.815.151L55.422 8.92a51.142 51.142 0 01-15.046 32.053c-11.27 11.173-23.955 13.821-29.91 14.495L-1.744-52.435zM-52.819.197c-.379 4.729-.306 9.175-.08 12.968L55.5 6.718c-.005-.075.005.054.005.366 0 .3-.01.915-.08 1.792L-52.82.196zm-.08 12.986c.305 5.102.985 13.082 3.84 21.254L53.457-1.377a46.808 46.808 0 011.432 4.934 36.88 36.88 0 01.518 2.674c.161 1.053.144 1.34.092.468l-108.398 6.484zm3.876 21.356c5.525 15.713 19.886 32.768 43.328 37.206L14.504-34.952C35.554-30.967 48.429-15.678 53.42-1.48L-49.023 34.54zm43.471 37.233c5.051.942 10.33 1.113 10.957 1.14 2.17.096 4.577.154 6.643.154V-35.526a54.426 54.426 0 01-1.847-.047c-.363-.016-.419-.024-.213-.008.105.008.464.037.998.096a48.527 48.527 0 013.375.507L-5.552 71.771zm17.6 1.294c2.066 0 4.475-.058 6.65-.154.618-.028 5.932-.2 11.02-1.155L9.66-34.967a48.531 48.531 0 013.407-.515c.542-.06.907-.09 1.015-.098.212-.017.162-.01-.197.007a53.972 53.972 0 01-1.838.047V73.066z" fill="#fff" mask="url(#b)"/></svg>