<svg width="29" height="16" fill="none" xmlns="http://www.w3.org/2000/svg"><mask id="a" fill="#fff"><path d="M14.498 15.5C22.506 15.5 29 12.141 29 8.001 29 3.857 22.506.5 14.498.5 6.49.5 0 3.855 0 8.001c0 4.14 6.491 7.497 14.498 7.497v.002zm2.732-3.682c-.244.568-.66 1.777-1.615 2.26-.304.14-.634.216-.968.224H14.5c-2.675 0-5.167-.377-7.251-1.017l-.08-.031c-.193-.065-.291-.155-.291-.267 0-.094.051-.168.12-.238l.13-.117c.485-.403 1.934-1.465 4.664-2.524.957-.368 2.157-.828 3.412-1.097.736-.155 3.466-.577 2.024 2.81l.002-.003zm7.325-7.56c.05-.09.12-.166.244-.172.067-.007.16.009.3.098C26.801 5.241 27.811 6.565 27.811 8c0 2.583-3.29 4.806-7.997 5.778-.302.06-.504.058-.571-.018-.049-.045-.062-.13 0-.234a.997.997 0 01.124-.175c2.564-3.051 4.517-7.555 5.07-8.851.044-.09.084-.18.118-.24zm-12.743-.094c.244-.565.66-1.775 1.615-2.255.289-.146.649-.215.966-.224h.145c2.679 0 5.167.372 7.255 1.016.016.007.065.023.08.032.191.065.29.154.29.264 0 .097-.052.169-.119.236a1.875 1.875 0 01-.133.117c-.48.408-1.93 1.467-4.66 2.524-.963.37-2.16.83-3.41 1.097-.738.157-3.47.58-2.03-2.807zM9.186 2.217c.302-.059.502-.059.575.017.045.05.056.13-.002.232a1.084 1.084 0 01-.126.175c-2.564 3.053-4.517 7.555-5.074 8.856a2.4 2.4 0 01-.118.238c-.049.09-.118.168-.24.175-.067.007-.162-.014-.304-.101-1.702-1.055-2.708-2.379-2.708-3.812 0-2.585 3.287-4.809 7.997-5.778"/></mask><path d="M14.498 15.5C22.506 15.5 29 12.141 29 8.001 29 3.857 22.506.5 14.498.5 6.49.5 0 3.855 0 8.001c0 4.14 6.491 7.497 14.498 7.497v.002zm2.732-3.682c-.244.568-.66 1.777-1.615 2.26-.304.14-.634.216-.968.224H14.5c-2.675 0-5.167-.377-7.251-1.017l-.08-.031c-.193-.065-.291-.155-.291-.267 0-.094.051-.168.12-.238l.13-.117c.485-.403 1.934-1.465 4.664-2.524.957-.368 2.157-.828 3.412-1.097.736-.155 3.466-.577 2.024 2.81l.002-.003zm7.325-7.56c.05-.09.12-.166.244-.172.067-.007.16.009.3.098C26.801 5.241 27.811 6.565 27.811 8c0 2.583-3.29 4.806-7.997 5.778-.302.06-.504.058-.571-.018-.049-.045-.062-.13 0-.234a.997.997 0 01.124-.175c2.564-3.051 4.517-7.555 5.07-8.851.044-.09.084-.18.118-.24zm-12.743-.094c.244-.565.66-1.775 1.615-2.255.289-.146.649-.215.966-.224h.145c2.679 0 5.167.372 7.255 1.016.016.007.065.023.08.032.191.065.29.154.29.264 0 .097-.052.169-.119.236a1.875 1.875 0 01-.133.117c-.48.408-1.93 1.467-4.66 2.524-.963.37-2.16.83-3.41 1.097-.738.157-3.47.58-2.03-2.807zM9.186 2.217c.302-.059.502-.059.575.017.045.05.056.13-.002.232a1.084 1.084 0 01-.126.175c-2.564 3.053-4.517 7.555-5.074 8.856a2.4 2.4 0 01-.118.238c-.049.09-.118.168-.24.175-.067.007-.162-.014-.304-.101-1.702-1.055-2.708-2.379-2.708-3.812 0-2.585 3.287-4.809 7.997-5.778" fill="#fff"/><path d="M14.498 15.5h-51.44v51.44h51.44V15.5zm0-.002h51.44v-51.44h-51.44v51.44zm2.732-3.68l47.25 20.339-83.81-56.527 36.56 36.187zm-1.615 2.26l21.545 46.71.83-.383.815-.411-23.189-45.918zm-.968.224v51.44h.586l.586-.013-1.172-51.427zm-7.398-1.017l-18.807 47.88 1.833.72 1.882.577L7.25 13.285zm-.08-.031l18.807-47.88-1.186-.465-1.208-.407L7.17 13.255zm-.171-.505l-34.203-38.422-1.211 1.078-1.141 1.152L6.998 12.75zm.13-.117l-32.945-39.505-.637.532-.62.551L7.129 12.632zm4.664-2.524L-6.662-37.908l-.075.029-.074.029 18.603 47.958zm3.412-1.097L4.606-41.326l-.096.02-.095.02 10.79 50.297zm2.024 2.81L-30.1-8.334l83.888 56.34-36.56-36.187zm7.327-7.563L-20.15-21.19l-.187.328-.181.33 45.073 24.79zm.244-.172l2.78 51.365 1.197-.065 1.192-.12L24.8 4.086zm.3.098L-2.67 47.486l.314.2.316.197L25.099 4.184zm-5.285 9.593l10.113 50.436.143-.028.142-.03-10.398-50.378zm-.571-.018l38.74-33.843-1.863-2.132-2.086-1.915-34.791 37.89zm0-.234l44.058 26.552.432-.717.409-.73-44.899-25.105zm.124-.175l38.46 34.162.47-.53.457-.543L19.367 13.35zm5.07-8.851l-46.1-22.822-.646 1.303-.57 1.337L24.437 4.498zm-12.625-.335l-47.22-20.407-.054.127-.054.127L11.812 4.164zm1.615-2.255L36.53 47.87l.043-.021.043-.022L13.427 1.91zm.966-.224v-51.44h-.726l-.726.02 1.452 51.42zm7.4 1.016l20.435-47.207-2.585-1.119-2.69-.83-15.16 49.156zm.08.032L-3.84 47.285l4.362 2.517 4.768 1.624L21.873 2.733zm.171.5L-14.51-32.959 22.044 3.233zm-.133.117l-32.688-39.72-.328.27-.323.276L21.912 3.35zm-4.66 2.524l18.477 48.007.045-.017.046-.018L17.25 5.874zm-3.41 1.097l10.714 50.312.012-.002.013-.003L13.84 6.97zM9.76 2.234l38.235-34.413-.562-.623-.582-.606L9.762 2.234zm-.002.232l44.467 25.86.093-.159.091-.16L9.76 2.467zm-.126.175l-38.466-34.154-.474.533-.459.547L9.634 2.64zm-5.074 8.856l46.987 20.934.15-.336.146-.34L4.559 11.498zm-.118.238L-39.49-15.03l-.65 1.067-.597 1.097 45.177 24.6zm-.24.175L1.37-39.453l-1.17.065-1.167.118L4.2 11.91zm-.304-.101l-27.098 43.724.067.042.067.041L3.897 11.81zm10.6 55.131c10.509 0 22.569-2.093 33.885-7.945 8.702-4.5 32.058-19.844 32.058-50.994H-22.44c0-27.01 20.11-38.604 23.563-40.39 6.067-3.137 10.875-3.551 13.375-3.551V66.94zM80.44 8.001c0-31.138-23.336-46.486-32.058-50.997C37.062-48.85 25-50.94 14.498-50.94V51.94c-2.494 0-7.304-.412-13.375-3.552C-2.35 46.592-22.44 34.995-22.44 8.001H80.44zM14.498-50.94c-10.498 0-22.56 2.088-33.883 7.945C-28.123-38.476-51.44-23.125-51.44 8H51.44c0 26.98-20.072 38.58-23.562 40.386-6.076 3.142-10.89 3.553-13.38 3.553V-50.94zM-51.44 8c0 31.147 23.351 46.491 32.059 50.994 11.316 5.852 23.375 7.943 33.879 7.943v-102.88c2.497 0 7.307.413 13.376 3.551C31.334-30.602 51.44-19.007 51.44 8H-51.44zm14.497 7.497v.002H65.938v-.002h-102.88zm6.925-24.019c-1.393 3.235.448-1.3 2.313-4.485 2.085-3.562 8.014-12.714 20.131-18.834l46.378 91.835c13.072-6.602 19.687-16.6 22.28-21.03 2.372-4.053 4.543-9.475 3.395-6.808L-30.018-8.521zm24.09-24.113a48.996 48.996 0 0119.402-4.491l2.345 102.854a53.886 53.886 0 0021.34-4.94L-5.928-32.634zm20.575-4.505H14.5V65.743h.147v-102.88zm-.147 0c1.955 0 4.591.25 7.84 1.248L-7.843 62.462c7.417 2.276 15.038 3.28 22.343 3.28v-102.88zm11.556 2.545l-.08-.031-37.614 95.758.08.031 37.614-95.758zm-2.474-.904a50.85 50.85 0 0118.15 10.736c8.495 7.796 16.586 20.805 16.586 37.749h-102.88c0 36.944 32.848 48.187 35.317 49.018l32.827-97.503zm34.736 48.485c0 20.59-11.888 33.048-14.765 35.954l-73.11-72.384c-3.015 3.045-15.005 15.652-15.005 36.43h102.88zM41.201 51.17l.131-.117-68.406-76.844-.131.117L41.2 51.171zm-1.126.967c-3.911 3.262-7.331 5.018-9.68 5.929L-6.81-37.851c-7.81 3.03-14.126 6.909-19.006 10.978l65.892 79.01zm-9.83 5.986c.557-.213.163-.056-.402.136a34.99 34.99 0 01-3.85 1.047L4.416-41.285c-5.746 1.232-10.52 3.163-11.077 3.377l36.908 96.032zm-4.442 1.223a46.765 46.765 0 01-8.485.986c-3.206.08-12.695.085-23.37-5.276-13.783-6.921-24.66-20.473-27.203-37.544C-35.221 4.318-31.322-5.463-30.1-8.333l94.656 40.306C66.5 27.41 70.598 16.412 68.502 2.35c-2.673-17.94-14.008-32.011-28.384-39.23-11.27-5.66-21.49-5.732-25.37-5.635a56.11 56.11 0 00-10.142 1.19L25.803 59.347zm27.985-11.34l.002-.002-73.12-72.374-.002.002 73.12 72.374zm15.47-18.3a51.05 51.05 0 01-12.594 14.697A51.185 51.185 0 0127.578 55.45L22.02-47.28c-25.796 1.395-38.51 19.66-42.17 26.088l89.41 50.9zm-39.29 25.559c-14.742 1.489-26.167-3.63-32.638-7.78l55.538-86.603c-6.75-4.329-18.363-9.48-33.238-7.977l10.338 102.36zM-2.04 47.883C-6.644 45.023-23.63 32.705-23.63 8H79.25c0-27.573-19.006-42.54-27.013-47.513L-2.04 47.883zM-23.63 8c0-22.347 14.159-34.716 19.459-38.473 6.078-4.309 11.342-5.665 13.586-6.128L30.212 64.155c6.951-1.434 16.214-4.388 25.114-10.697 8.122-5.758 23.926-20.53 23.926-45.46h-102.88zM9.701-36.66a49.765 49.765 0 0111.083-.944c2.74.072 7.614.411 13.422 2.168 5.667 1.713 15.387 5.748 23.777 15.352l-77.48 67.686c15.46 17.697 35.811 17.593 37.594 17.64 5.607.146 10-.662 11.83-1.029L9.7-36.66zm44.333 12.528C64.753-14.29 70.067-1.136 70.597 11.515c.51 12.215-3.37 22.049-7.296 28.563l-88.116-53.103c-7.793 12.93-14.973 42.418 9.267 64.675l69.582-75.78zM64.142 38.63a50.45 50.45 0 01-6.316 8.883L-19.09-20.81a52.431 52.431 0 00-6.565 9.233L64.143 38.63zm-5.388 7.81c8.14-9.69 12.68-21.01 13-21.76L-22.88-15.682c-.081.19-.075.162.005.01.048-.092.236-.445.584-.996.317-.5 1.056-1.622 2.271-3.069L58.754 46.44zm11.784-19.12c.156-.315.278-.569.334-.687l.056-.118-.02.044c-.028.057-.157.327-.33.676-.166.333-.5.993-.951 1.815l-90.144-49.583a52.697 52.697 0 00-1.003 1.916c-.193.386-.34.695-.387.793l-.036.075-.016.032.026-.053c.035-.074.135-.282.27-.553l92.2 45.643zM59.03 24.571c1.426-3.298-.444 1.28-2.298 4.444-2.086 3.56-8.037 12.74-20.203 18.855L-9.676-44.051c-13.121 6.595-19.757 16.62-22.35 21.045-2.363 4.03-4.563 9.496-3.381 6.763L59.03 24.571zM36.616 47.826a49.421 49.421 0 01-11.586 4.141 48.794 48.794 0 01-9.184 1.138l-2.905-102.84c-5.644.16-13.915 1.289-22.703 5.727l46.378 91.834zm-22.223 5.3h.145V-49.757h-.145V53.125zm.145 0c-1.892 0-4.567-.24-7.904-1.269l30.318-98.312c-7.513-2.317-15.164-3.3-22.414-3.3v102.88zm-13.18-3.218a51.738 51.738 0 002.814 1.122l.18.065-.014-.005-.036-.013-.136-.05a51.168 51.168 0 01-8.007-3.742L47.587-41.82a51.534 51.534 0 00-6.42-3.133c-.84-.34-1.51-.585-1.666-.642l-.211-.077.158.058a51.355 51.355 0 012.78 1.108L1.358 49.909zm3.93 1.518A50.85 50.85 0 01-12.68 40.758c-8.28-7.594-16.598-20.558-16.598-37.76h102.88c0-36.967-32.934-48.206-35.144-48.959L5.288 51.426zM-29.277 2.997c0-20.619 11.928-33.088 14.767-35.956L58.6 39.425c2.973-3.002 15.003-15.615 15.003-36.428h-102.88zm14.767-35.956a50.405 50.405 0 012.749-2.577c.517-.449.923-.782.985-.833L54.6 43.069a52.509 52.509 0 004-3.644L-14.51-32.96zm3.083-2.865c4.273-3.637 7.914-5.424 10.11-6.274L35.82 53.846c7.656-2.964 14.198-6.869 19.431-11.322l-66.678-78.349zm10.201-6.31c-.565.218-.164.057.41-.137.62-.21 2.008-.657 3.917-1.065L24.58 57.279c5.792-1.237 10.61-3.19 11.148-3.397L-1.227-42.133zm4.353-1.207c1.303-.277 4.438-.9 8.553-1.007 3.21-.083 12.696-.095 23.372 5.253C48.833-32.19 59.735-18.647 62.29-1.557c1.976 13.208-1.928 23.002-3.15 25.874l-94.657-40.306c-1.944 4.566-6.047 15.576-3.941 29.653 2.686 17.958 14.047 32.02 28.424 39.223C.237 58.534 10.454 58.6 14.34 58.498a56.086 56.086 0 0010.215-1.215L3.125-43.34zM18.94 52.724c-1.298.25-5.31 1-10.57.878a50.966 50.966 0 01-13.043-2.015 51.27 51.27 0 01-22.655-13.71l74.181-71.285C31.744-49.13 13.164-49.196 10.75-49.25a53.198 53.198 0 00-11.317.96L18.94 52.724zm-47.412-16.076A51.293 51.293 0 01-41.62 3.796a51.184 51.184 0 016.73-26.872l89.3 51.084c7.626-13.331 12.667-38.986-6.414-60.187l-76.469 68.826zm-6.235-60.043a50.357 50.357 0 015.875-8.118l76.931 68.307a52.527 52.527 0 006.128-8.467l-88.934-51.722zm4.942-7.038c-8.12 9.674-12.67 20.997-12.958 21.671l94.566 40.518c.107-.25.103-.227.027-.081-.047.088-.232.437-.579.984a28.493 28.493 0 01-2.26 3.056l-78.796-66.149zM-42.428-9.438a47.284 47.284 0 011.477-3.024c.317-.596.81-1.497 1.464-2.569L48.37 38.5a52.773 52.773 0 003.176-6.069L-42.429-9.437zm1.693-3.429a51.053 51.053 0 0112.44-15.036 51.195 51.195 0 0129.667-11.55l5.66 102.724c26.531-1.461 39.17-20.661 42.587-26.937l-90.354-49.2zM-.968-39.27c15.604-1.576 27.02 4.312 31.828 7.27l-53.927 87.615c5.093 3.135 16.7 9.063 32.437 7.474L-.968-39.27zm31.962 7.354C35.728-28.982 52.63-16.644 52.63 7.997H-50.25c0 27.508 18.912 42.493 27.05 47.536l54.195-87.449zM52.63 7.997c0 22.32-14.128 34.691-19.456 38.468-6.09 4.318-11.367 5.675-13.617 6.138L-1.184-48.166c-6.96 1.433-16.235 4.386-25.147 10.705-8.149 5.777-23.92 20.552-23.92 45.458h102.88z" fill="#fff" mask="url(#a)"/></svg>