<svg width="22" height="22" fill="none" xmlns="http://www.w3.org/2000/svg"><path fill-rule="evenodd" clip-rule="evenodd" d="M11 22C4.925 22 0 17.075 0 11S4.925 0 11 0s11 4.925 11 11-4.925 11-11 11z" fill="#fff"/><path fill-rule="evenodd" clip-rule="evenodd" d="M11.003 12.662l-8.93 3.696a10.374 10.374 0 008.968 5.072 10.394 10.394 0 008.93-5.13l-8.968-3.639zM9.456 10.05L10.879.624a10.414 10.414 0 00-8.883 5.205 10.37 10.37 0 00-.057 10.297l7.517-6.075zm3.046.125l7.603 5.884a10.375 10.375 0 00-.114-10.25A10.408 10.408 0 0011.146.625l1.356 9.552z" fill="#FC0012"/></svg>