<svg width="28" height="18" fill="none" xmlns="http://www.w3.org/2000/svg"><mask id="a" fill="#fff"><path d="M13.123 17.084c-1.469-.907-2.55-4.04-2.55-7.76 0-.136 0-.271.004-.405l.002.002c-4.083-.634-7.034-2.369-7.11-4.42l-.012.023c-1 1.226-1.57 2.642-1.57 4.152 0 4.441 4.941 8.08 11.209 8.403l.027.005zM0 9c0-4.97 6.268-9 14-9s14 4.03 14 9-6.268 9-14 9S0 13.97 0 9zm14-7.701c1.493 0 2.762 2.234 3.233 5.352l.001-.005c2.904-.446 4.938-1.475 4.938-2.673 0-1.607-3.66-2.908-8.172-2.908-4.513 0-8.172 1.302-8.172 2.908 0 1.198 2.033 2.227 4.938 2.673l.001.005c.47-3.118 1.74-5.352 3.233-5.352zm.904 15.78c6.267-.322 11.209-3.962 11.209-8.403 0-1.51-.572-2.926-1.57-4.152l-.013-.023c-.075 2.051-3.025 3.786-7.109 4.42l.002-.002c.003.134.004.269.004.405 0 3.72-1.082 6.853-2.55 7.76l.027-.005zM14 6.882c.67 0 1.319-.028 1.94-.082-.31-1.998-1.061-3.408-1.94-3.408s-1.63 1.41-1.94 3.408c.621.054 1.27.082 1.94.082zm0 7.4c1.124 0 2.04-2.307 2.09-5.201l.005.001a23.14 23.14 0 01-4.19 0l.006-.001c.049 2.895.965 5.202 2.089 5.202z"/></mask><path d="M13.123 17.084c-1.469-.907-2.55-4.04-2.55-7.76 0-.136 0-.271.004-.405l.002.002c-4.083-.634-7.034-2.369-7.11-4.42l-.012.023c-1 1.226-1.57 2.642-1.57 4.152 0 4.441 4.941 8.08 11.209 8.403l.027.005zM0 9c0-4.97 6.268-9 14-9s14 4.03 14 9-6.268 9-14 9S0 13.97 0 9zm14-7.701c1.493 0 2.762 2.234 3.233 5.352l.001-.005c2.904-.446 4.938-1.475 4.938-2.673 0-1.607-3.66-2.908-8.172-2.908-4.513 0-8.172 1.302-8.172 2.908 0 1.198 2.033 2.227 4.938 2.673l.001.005c.47-3.118 1.74-5.352 3.233-5.352zm.904 15.78c6.267-.322 11.209-3.962 11.209-8.403 0-1.51-.572-2.926-1.57-4.152l-.013-.023c-.075 2.051-3.025 3.786-7.109 4.42l.002-.002c.003.134.004.269.004.405 0 3.72-1.082 6.853-2.55 7.76l.027-.005zM14 6.882c.67 0 1.319-.028 1.94-.082-.31-1.998-1.061-3.408-1.94-3.408s-1.63 1.41-1.94 3.408c.621.054 1.27.082 1.94.082zm0 7.4c1.124 0 2.04-2.307 2.09-5.201l.005.001a23.14 23.14 0 01-4.19 0l.006-.001c.049 2.895.965 5.202 2.089 5.202z" fill="#5F5F5F"/><path d="M13.123 17.084l-2.496 12.925 9.415-24.123-6.92 11.198zm-2.546-8.165l9.246-9.37L-1.79-21.778l-.792 30.353 13.16.344zm.002.002L8.562 21.928l40.267 6.244L19.825-.449l-9.246 9.37zM3.469 4.5l13.155-.483-1.832-49.904L-8.214-1.564 3.47 4.501zm-.012.023l10.2 8.32.858-1.051.626-1.205L3.457 4.524zm9.639 12.555L15.59 4.154l-.902-.174-.918-.047-.675 13.146zM17.233 6.65L4.217 8.615l7.49 49.63 17.83-46.918L17.233 6.65zm.001-.005l-1.998-13.01-7.581 1.163L4.93 1.97l12.304 4.677zm-6.468 0L23.07 1.968l-2.725-7.167-7.58-1.166-2 13.011zm.001.005l-12.304 4.678 17.831 46.9 7.49-49.614L10.767 6.65zm4.137 10.428l-.676-13.146-.945.048-.928.184 2.549 12.914zm9.639-12.555l-11.684 6.064.624 1.203.857 1.05 10.203-8.317zM24.53 4.5l11.684-6.065-23.006-44.323-1.832 49.905L24.53 4.5zm-7.109 4.42L8.175-.45l-29.003 28.62 40.266-6.242L17.42 8.92zm.002-.002l13.16-.286-.664-30.539L8.177-.45l9.246 9.37zm-2.545 8.165L7.953 5.889l9.472 24.11-2.548-12.915zM15.94 6.8l9.245 9.37L51.182-9.484l-36.384 3.17L15.941 6.8zm-.001 0L2.932 8.814l3.937 25.431L25.186 16.17 15.94 6.8zm-3.88 0l-9.246 9.37 18.31 18.069 3.944-25.42L12.06 6.8zm0 0l1.142-13.114-36.384-3.169L2.814 16.17l9.245-9.37zm4.03 2.28l3.737-12.62L3.22-8.456 2.928 8.858l13.162.223zm.005.002l1.192 13.11L19.831-3.54 16.095 9.082zm-4.19 0L8.483-3.628l2.23 25.82 1.192-13.11zm.006-.001l13.162-.22-.283-16.879L8.49-3.63l3.42 12.71zm8.131-3.195c1.817 1.123 2.764 2.43 3.139 3.013.415.647.572 1.1.604 1.197.06.182-.049-.097-.049-.772H-2.59c0 3.047.431 6.193 1.4 9.098.768 2.305 2.685 6.95 7.393 9.86l13.84-22.396zm3.694 3.438v-.09.028l-26.318-.687c-.008.313-.008.589-.008.75h26.326zM1.331 18.288l.002.002L19.825-.45h-.002L1.33 18.287zM12.596-4.087c-.892-.139-.854-.296-.205.101.346.211 1.224.802 2.12 1.98.953 1.252 2.014 3.31 2.113 6.024l-26.309.965c.278 7.574 5.608 11.819 8.336 13.488 3.165 1.936 6.72 2.962 9.91 3.457l4.035-26.015zm-20.81 2.523l-.012.024 23.367 12.128.012-.023L-8.214-1.564zm1.47-2.232c-2.612 3.203-4.532 7.483-4.532 12.472h26.327c0 1.97-.78 3.416-1.393 4.168L-6.743-3.796zm-4.532 12.472c0 7.467 4.182 13.042 8.548 16.299 4.38 3.265 9.775 4.974 15.148 5.25l1.351-26.292c-.894-.046-1.103-.319-.76-.063.329.245 2.04 1.78 2.04 4.806h-26.327zM10.6 30.003l.027.006 4.99-25.85-.026-.005-4.99 25.85zM13.163 9c0 1.635-.54 2.932-1.066 3.732-.25.379-.481.629-.632.772a1.845 1.845 0 01-.246.205c-.004.002.058-.038.197-.098.139-.06.334-.132.589-.202A7.691 7.691 0 0114 13.163v-26.326c-6.009 0-12.061 1.54-17.018 4.727C-7.833-5.341-13.163.517-13.163 9h26.326zM14 13.163a7.7 7.7 0 011.995.246c.255.07.45.142.589.202.139.06.2.1.197.098a1.845 1.845 0 01-.246-.205 4.417 4.417 0 01-.632-.772c-.527-.8-1.066-2.097-1.066-3.732h26.326c0-8.483-5.33-14.34-10.145-17.436-4.957-3.187-11.01-4.727-17.018-4.727v26.326zM14.837 9c0-1.635.54-2.932 1.066-3.732.25-.379.481-.629.632-.772.15-.144.244-.203.246-.205.004-.002-.058.038-.197.098a4.37 4.37 0 01-.589.202A7.694 7.694 0 0114 4.837v26.326c6.009 0 12.061-1.54 17.018-4.727C35.833 23.341 41.163 17.483 41.163 9H14.837zM14 4.837a7.7 7.7 0 01-1.995-.246 4.37 4.37 0 01-.589-.202c-.139-.06-.2-.1-.197-.098.002.002.095.061.246.205.15.143.383.393.632.772.527.8 1.066 2.097 1.066 3.732h-26.326c0 8.483 5.33 14.34 10.145 17.436C1.94 29.623 7.992 31.163 14 31.163V4.837zm0 9.625a11.43 11.43 0 01-6.947-2.325c-1.368-1.05-2.08-2.12-2.374-2.614-.567-.955-.535-1.387-.462-.908l26.032-3.929c-.399-2.639-1.237-5.746-2.93-8.598-1.354-2.283-5.498-7.953-13.319-7.953v26.327zm15.537-3.135l.002-.005L4.93 1.97l-.001.004 24.61 9.353zm-10.305 8.33c2.306-.354 5.109-1.046 7.734-2.44 1.594-.847 8.37-4.749 8.37-13.244H9.007c0-3.677 1.615-6.335 2.86-7.77 1.171-1.348 2.312-2.005 2.75-2.237.883-.469 1.217-.423.618-.33l3.996 26.02zM35.335 3.973c0-5.796-3.335-9.525-5.33-11.204-2.059-1.732-4.255-2.7-5.814-3.254-3.235-1.151-6.84-1.613-10.191-1.613v26.327c1.162 0 1.643.188 1.366.09-.08-.03-1.08-.37-2.312-1.406-1.168-.983-4.046-3.947-4.046-8.94h26.327zM14-12.098c-3.352 0-6.956.462-10.191 1.613C2.249-9.93.054-8.963-2.005-7.23c-1.994 1.678-5.33 5.407-5.33 11.204h26.327c0 4.994-2.88 7.958-4.046 8.94-1.232 1.036-2.23 1.377-2.311 1.405-.277.1.204-.09 1.365-.09v-26.326zM-7.335 3.973c0 8.495 6.774 12.397 8.369 13.244 2.625 1.394 5.428 2.085 7.732 2.44l4-26.022c-.6-.092-.267-.138.616.33.437.233 1.578.89 2.75 2.239a11.867 11.867 0 012.86 7.77H-7.335zm5.796 7.35l.002.005 24.609-9.355-.002-.005-24.609 9.356zm25.322-2.708c.072-.477.104-.046-.462.909-.293.492-1.005 1.563-2.372 2.613A11.43 11.43 0 0114 14.462v-26.327c-7.823 0-11.966 5.672-13.32 7.953-1.692 2.851-2.53 5.958-2.929 8.598l26.032 3.93zm-8.204 21.61c5.374-.276 10.768-1.984 15.148-5.25 4.366-3.256 8.549-8.831 8.549-16.3H12.949c0-3.026 1.712-4.56 2.04-4.806.343-.255.133.018-.76.064l1.35 26.292zm23.697-21.55c0-4.99-1.923-9.269-4.53-12.468L14.34 12.841c-.61-.748-1.39-2.193-1.39-4.165h26.326zM36.226-1.54l-.012-.024-23.367 12.129.012.023L36.226-1.54zm-24.85 5.558c.1-2.714 1.16-4.772 2.112-6.023.897-1.179 1.775-1.77 2.12-1.98.65-.399.688-.24-.204-.102l4.034 26.015c3.192-.494 6.746-1.52 9.911-3.457 2.73-1.67 8.058-5.915 8.336-13.488l-26.31-.965zM26.667 18.29l.002-.002L8.177-.45l-.002.002 18.492 18.74zM4.263 9.205v.12H30.59c0-.211-.001-.444-.007-.692l-26.32.572zm0 .12c0 .672-.108.951-.048.77.032-.096.188-.549.603-1.196.374-.58 1.32-1.887 3.136-3.01L21.8 28.279c4.704-2.909 6.62-7.552 7.389-9.856.968-2.904 1.4-6.05 1.4-9.099H4.264zm13.163 20.673l.027-.005-5.098-25.828-.026.005 5.097 25.828zM14 20.046c1.037 0 2.068-.044 3.083-.132L14.798-6.314c-.228.02-.497.033-.798.033v26.327zM6.695-2.57l18.49 18.74h.002L6.694-2.57zm22.253 7.356c-.3-1.937-.921-4.44-2.273-6.859-.9-1.612-4.708-7.699-12.675-7.699v26.327a12.182 12.182 0 01-7.727-2.742c-1.462-1.202-2.24-2.434-2.581-3.047a7.615 7.615 0 01-.638-1.454 3.572 3.572 0 01-.122-.498l26.016-4.028zM14-9.772c-7.969 0-11.776 6.09-12.676 7.7C-.026.347-.648 2.848-.948 4.783l26.016 4.035c-.008.05-.037.22-.122.495a7.61 7.61 0 01-.637 1.452c-.342.612-1.118 1.845-2.58 3.047A12.182 12.182 0 0114 16.555V-9.772zm7.306 7.203L2.813 16.168v.001L21.306-2.57zM10.917 19.914c1.015.088 2.046.132 3.083.132V-6.281c-.301 0-.57-.013-.798-.033l-2.285 26.228zM14 27.446c5.133 0 8.64-2.689 10.406-4.576 1.747-1.867 2.72-3.855 3.263-5.211 1.116-2.79 1.538-5.755 1.582-8.355L2.928 8.858c-.005.294-.066-.07.3-.982.166-.417.696-1.648 1.953-2.992A12.083 12.083 0 0114 1.12v26.326zm-1.646-5.743l.005.001L19.831-3.54l-.005-.001-7.473 25.244zm2.55-25.73a9.915 9.915 0 01-1.807 0l-2.384 26.219c2.187.198 4.387.198 6.574 0L14.903-4.027zm.422 25.82l.006-.001L8.49-3.63l-.007.001 6.843 25.422zM-1.25 9.301c.043 2.6.464 5.566 1.581 8.357.543 1.357 1.516 3.346 3.264 5.213C5.36 24.759 8.868 27.446 14 27.446V1.12c4.57 0 7.541 2.399 8.818 3.763 1.258 1.345 1.788 2.576 1.955 2.993.366.914.305 1.279.3.984l-26.323.441z" fill="#fff" mask="url(#a)"/></svg>