<svg width="22" height="22" fill="none" xmlns="http://www.w3.org/2000/svg"><mask id="a" fill="#fff"><path d="M11 20.988c-5.478 0-9.966-4.51-9.966-9.988 0-1.232.22-2.398.638-3.498l5.83 11.726c.066.154.176.286.352.286s.286-.132.352-.286l2.684-6.006c.022-.066.066-.132.132-.132s.088.066.132.132l2.684 6.006c.066.154.176.286.352.286s.286-.132.352-.286l5.83-11.726A9.77 9.77 0 0121.01 11c-.044 5.478-4.532 9.988-10.01 9.988zm0-12.254c-.066 0-.088-.066-.132-.132l-3.124-7.04A9.384 9.384 0 0111 .99c1.144 0 2.244.198 3.256.572l-3.124 7.04c-.044.088-.066.132-.132.132zm-3.19 7.238c-.066 0-.088-.066-.132-.132L2.618 5.632a10.124 10.124 0 013.586-3.366l3.652 8.118c.044.132.154.176.264.176h1.76c.132 0 .22-.022.286-.176l3.652-8.118a10.31 10.31 0 013.586 3.366L14.3 15.84c-.022.066-.066.132-.132.132s-.088-.066-.132-.132l-1.914-4.356c-.066-.154-.154-.176-.286-.176h-1.76c-.132 0-.22.022-.286.176L7.942 15.84c-.022.066-.066.132-.132.132zM11 22c6.094 0 11-4.906 11-11S17.094 0 11 0 0 4.906 0 11s4.906 11 11 11z"/></mask><path d="M11 20.988c-5.478 0-9.966-4.51-9.966-9.988 0-1.232.22-2.398.638-3.498l5.83 11.726c.066.154.176.286.352.286s.286-.132.352-.286l2.684-6.006c.022-.066.066-.132.132-.132s.088.066.132.132l2.684 6.006c.066.154.176.286.352.286s.286-.132.352-.286l5.83-11.726A9.77 9.77 0 0121.01 11c-.044 5.478-4.532 9.988-10.01 9.988zm0-12.254c-.066 0-.088-.066-.132-.132l-3.124-7.04A9.384 9.384 0 0111 .99c1.144 0 2.244.198 3.256.572l-3.124 7.04c-.044.088-.066.132-.132.132zm-3.19 7.238c-.066 0-.088-.066-.132-.132L2.618 5.632a10.124 10.124 0 013.586-3.366l3.652 8.118c.044.132.154.176.264.176h1.76c.132 0 .22-.022.286-.176l3.652-8.118a10.31 10.31 0 013.586 3.366L14.3 15.84c-.022.066-.066.132-.132.132s-.088-.066-.132-.132l-1.914-4.356c-.066-.154-.154-.176-.286-.176h-1.76c-.132 0-.22.022-.286.176L7.942 15.84c-.022.066-.066.132-.132.132zM11 22c6.094 0 11-4.906 11-11S17.094 0 11 0 0 4.906 0 11s4.906 11 11 11z" fill="#5F5F5F"/><path d="M1.672 7.502l21.742-10.81-24.718-49.715-19.722 51.9L1.672 7.502zm5.83 11.726L29.82 9.663l-.27-.63-.306-.615-21.742 10.81zm.704 0l-22.168-9.907-.076.17-.074.172 22.318 9.565zm2.684-6.006l22.168 9.907.489-1.093.378-1.136-23.035-7.678zm.264 0l22.168-9.907-.833-1.863-1.132-1.699-20.203 13.469zm2.684 6.006l22.318-9.565-.074-.171-.076-.17-22.168 9.906zm.704 0L-7.2 8.418l-.306.615-.27.63 22.318 9.565zm5.83-11.726L43.07-1.123l-19.722-51.9L-1.37-3.308l21.742 10.81zM21.01 11l24.28.195.001-.098V11H21.01zM10.868 8.602l-22.194 9.849.84 1.895 1.15 1.725L10.869 8.602zm-3.124-7.04L-.673-21.214l-24.274 8.971 10.497 23.654L7.744 1.562zm6.512 0l22.194 9.849 10.496-23.654-24.273-8.97-8.417 22.775zm-3.124 7.04L32.85 19.461l.25-.5.226-.51-22.194-9.849zM7.678 15.84l-21.755 10.784.69 1.392.862 1.293L7.678 15.84zM2.618 5.632L-17.733-7.612-25.291 4l6.154 12.415L2.618 5.632zm3.586-3.366l22.144-9.962L17.536-31.73l-23.07 12.74L6.204 2.267zm3.652 8.118l23.035-7.678-.388-1.165L32 .422 9.856 10.384zm2.31 0L-9.978.422l-.089.198-.085.2 22.318 9.564zm3.652-8.118l11.874-21.18-23.136-12.97L-6.326-7.696l22.144 9.962zm3.586 3.366l21.718 10.859 6.221-12.443-7.588-11.66L19.404 5.632zM14.3 15.84L-7.418 4.981l-.771 1.544-.546 1.637L14.3 15.84zm-.264 0l-22.23 9.768.852 1.939 1.175 1.762L14.036 15.84zm-1.914-4.356l-22.318 9.565.044.102.044.1 22.23-9.767zm-2.332 0l-22.318-9.565-.018.041-.017.041L9.79 11.484zM7.942 15.84l-22.353-9.483-.377.889-.305.916L7.942 15.84zM11-3.293c8.002 0 14.315 6.43 14.315 14.293h-48.562c0 18.819 15.29 34.27 34.247 34.27V-3.294zM25.315 11c0 1.727-.32 3.483-.945 5.127l-45.396-17.25A34.05 34.05 0 00-23.247 11h48.562zm-45.385 7.312l5.83 11.726 43.484-21.62-5.83-11.726-43.484 21.62zm5.254 10.48c1.303 3.041 7.573 15.003 22.67 15.003V-4.767c6.64 0 12.22 2.705 16.073 6.19a23.715 23.715 0 015.893 8.24l-44.636 19.13zm22.67 15.003c15.097 0 21.367-11.962 22.67-15.002l-44.636-19.13a23.715 23.715 0 015.893-8.24c3.852-3.485 9.433-6.19 16.073-6.19v48.562zm22.52-14.66l2.684-6.006-44.336-19.814-2.684 6.006 44.336 19.814zm3.551-8.235a24.022 24.022 0 01-4.837 8.363c-3.041 3.42-9.136 8.108-18.066 8.108V-11.19C2.026-11.19-4.124-6.47-7.208-3a24.544 24.544 0 00-4.937 8.545L33.925 20.9zM11.022 37.371A24.201 24.201 0 01-8.07 28.038a24.022 24.022 0 01-1.192-1.675c-.233-.359-.403-.645-.435-.697-.194-.323.224.389.648 1.025L31.357-.247c.402.603.8 1.282.588.928a24.546 24.546 0 00-1.682-2.457 24.361 24.361 0 00-19.24-9.415V37.37zM-11.014 23.13l2.684 6.006L36.006 9.32l-2.684-6.006-44.336 19.814zm2.534 5.664c1.303 3.04 7.573 15.002 22.67 15.002V-4.767c6.64 0 12.22 2.705 16.073 6.19a23.715 23.715 0 015.893 8.24L-8.48 28.793zm22.67 15.002c15.097 0 21.367-11.962 22.67-15.002L-7.776 9.663a23.716 23.716 0 015.893-8.24c3.852-3.485 9.433-6.19 16.073-6.19v48.562zm22.094-13.757l5.83-11.726L-1.37-3.308-7.2 8.418l43.484 21.62zm-38.61-13.91A14.512 14.512 0 01-3.27 11h48.56c0-4.191-.76-8.279-2.221-12.123l-45.396 17.25zm-.944-5.323A14.197 14.197 0 0111-3.293v48.562c18.995 0 34.14-15.446 34.29-34.074l-48.56-.39zM11-15.547a24.201 24.201 0 0119.092 9.333 23.771 23.771 0 011.627 2.372c.194.323-.224-.389-.648-1.025L-9.335 22.071c-.402-.603-.8-1.282-.588-.928A24.563 24.563 0 00-8.241 23.6 24.361 24.361 0 0011 33.015v-48.562zm22.062 14.3l-3.124-7.04-44.388 19.698 3.124 7.04L33.062-1.247zm-16.9 25.585c-1.746.645-3.5.933-5.162.933V-23.29c-3.95 0-7.904.684-11.673 2.077L16.16 24.338zM11 25.27c-1.661 0-3.416-.288-5.161-.933l16.834-45.552A33.664 33.664 0 0011-23.29v48.56zM-7.938-8.287l-3.124 7.04 44.388 19.698 3.124-7.04L-7.938-8.287zm-2.648 6.03c-.089.178.185-.382.525-.987s1.28-2.237 2.862-4.044A24.188 24.188 0 0111-15.548v48.563a24.38 24.38 0 0021.717-13.292l.098-.192.035-.07-43.436-21.718zM7.81-8.309a24.202 24.202 0 0119.092 9.333c.551.708.955 1.31 1.192 1.676.233.358.403.644.435.696.194.323-.224-.39-.648-1.025L-12.525 29.31c-.402-.603-.8-1.282-.588-.928a24.545 24.545 0 001.682 2.457 24.361 24.361 0 0019.24 9.415V-8.309zM29.433 5.056l-5.06-10.208-43.51 21.568 5.06 10.208 43.51-21.568zm-6.464 13.82a14.162 14.162 0 01-5.027 4.645l-23.476-42.51c-5.185 2.863-9.272 6.879-12.199 11.377l40.702 26.488zm-38.909-6.648l3.652 8.118L32 .422l-3.652-8.118-44.288 19.924zm2.76 5.834A24.522 24.522 0 00-2.347 31.45a24.587 24.587 0 0012.468 3.391V-13.72c2.978 0 7.492.571 12.154 3.314A24.04 24.04 0 0132.891 2.706l-46.07 15.356zm23.3 16.78h1.76v-48.563h-1.76V34.84zm1.76 0c.74 0 5.92.116 11.529-2.853 6.462-3.421 9.641-8.694 11.075-12.04L-10.152.819C-8.784-2.373-5.682-7.558.687-10.93c5.513-2.92 10.585-2.79 11.193-2.79v48.56zm22.43-14.496l3.652-8.118L-6.326-7.696-9.978.422 34.31 20.346zm-30.366 3.1a13.97 13.97 0 01-4.891-4.57L39.755-7.612a34.59 34.59 0 00-12.063-11.302L3.944 23.446zM-2.314-5.227L-7.418 4.981 36.018 26.7l5.104-10.208L-2.314-5.227zM-8.735 8.162A24.02 24.02 0 01-3.898-.201c3.041-3.42 9.136-8.108 18.066-8.108v48.562c8.996 0 15.146-4.72 18.23-8.19a24.544 24.544 0 004.937-8.545L-8.735 8.162zM14.168-8.31A24.202 24.202 0 0133.26 1.024a23.771 23.771 0 011.627 2.372c.194.323-.224-.39-.648-1.025L-6.167 29.31c-.402-.603-.8-1.282-.588-.928a24.563 24.563 0 001.682 2.457 24.361 24.361 0 0019.24 9.415V-8.309zM36.266 6.072l-1.914-4.356-44.46 19.536 1.914 4.356 44.46-19.536zM34.44 1.92c-1.434-3.347-4.613-8.62-11.075-12.04-5.608-2.97-10.789-2.852-11.529-2.852V35.59c-.608 0-5.679.128-11.193-2.791-6.369-3.372-9.471-8.558-10.839-11.75L34.44 1.92zM11.836-12.973h-1.76v48.562h1.76v-48.562zm-1.76 0c-.74 0-5.92-.117-11.529 2.852-6.462 3.42-9.641 8.694-11.075 12.04l44.636 19.13c-1.368 3.192-4.47 8.377-10.839 11.749-5.514 2.92-10.585 2.791-11.193 2.791v-48.562zM-12.563 2l-1.848 4.356 44.706 18.966 1.848-4.356L-12.563 2zm-2.53 6.16A24.021 24.021 0 01-10.255-.2C-7.215-3.62-1.12-8.309 7.81-8.309v48.562c8.996 0 15.146-4.72 18.23-8.19a24.544 24.544 0 004.937-8.545l-46.07-15.356zM11 46.282c19.504 0 35.281-15.777 35.281-35.281H-2.28C-2.281 3.684 3.684-2.281 11-2.281V46.28zM46.281 11c0-19.504-15.777-35.281-35.281-35.281V24.28C3.684 24.281-2.281 18.316-2.281 11H46.28zM11-24.281C-8.504-24.281-24.281-8.504-24.281 11H24.28c0 7.316-5.965 13.281-13.281 13.281V-24.28zM-24.281 11c0 19.504 15.777 35.281 35.281 35.281V-2.28c7.316 0 13.281 5.965 13.281 13.281H-24.28z" fill="#fff" mask="url(#a)"/></svg>